<svg viewBox="0 0 22 23" fill="none" xmlns="http://www.w3.org/2000/svg">
<path d="M4.85459 0.688467C2.55928 0.988077 0.685449 2.76542 0.228418 5.07597C0.121777 5.60409 0.121777 17.3955 0.228418 17.9236C0.517871 19.376 1.36592 20.6506 2.58467 21.4529C3.10264 21.7982 3.60029 22.0166 4.29092 22.2096L4.77842 22.3416H10.9483C17.8089 22.3416 17.3823 22.3619 18.3624 21.9963C19.7894 21.458 20.9573 20.29 21.4956 18.8631C21.8612 17.8881 21.8409 18.2994 21.8409 11.5252C21.8409 4.89823 21.8511 5.15722 21.5515 4.28886C21.0183 2.75019 19.7589 1.47558 18.2558 0.957607C17.3417 0.647842 17.7784 0.663076 11.2022 0.65292C7.89131 0.647842 5.0374 0.663076 4.85459 0.688467ZM15.6253 7.23925C16.2042 7.41191 16.5343 8.0873 16.3108 8.62558C16.2296 8.81855 10.7401 15.4252 10.5167 15.6029C10.2222 15.8365 9.79561 15.867 9.44522 15.6791C9.35381 15.6283 8.49561 14.8818 7.546 14.0185C6.27647 12.8607 5.79404 12.3935 5.71787 12.2361C5.30654 11.3881 6.21553 10.4486 7.06865 10.8346C7.18545 10.8904 7.78975 11.3932 8.43975 11.9873C9.07959 12.5662 9.65342 13.0842 9.70928 13.135L9.81592 13.2314L12.1823 10.3978C13.4823 8.83886 14.5995 7.50839 14.6706 7.44745C14.8128 7.31542 15.1226 7.18847 15.3104 7.18339C15.3765 7.18339 15.5187 7.20878 15.6253 7.23925Z" fill="#558CFC"/>
</svg>
