<svg width="17" height="21" viewBox="0 0 17 21" fill="none" xmlns="http://www.w3.org/2000/svg">
<path d="M7.70542 3.04848C7.14758 3.15253 6.74293 3.28838 6.30649 3.51672C4.99716 4.20173 4.13006 5.3492 3.81212 6.80883C3.75431 7.07763 3.74564 7.19035 3.74853 7.77709C3.74853 8.35227 3.7572 8.47945 3.81212 8.72802C3.90172 9.12689 4.0289 9.48529 4.21099 9.85814C4.41042 10.2628 8.13608 16.0724 8.24881 16.1562C8.36731 16.2429 8.62744 16.24 8.75173 16.1504C8.80953 16.11 9.19684 15.5319 9.87607 14.474C10.4455 13.5896 11.3039 12.2514 11.7837 11.5028C12.2635 10.7542 12.7086 10.0402 12.7722 9.91306C12.937 9.58067 13.0786 9.18469 13.1711 8.78871C13.2462 8.46211 13.252 8.40141 13.252 7.77709C13.2549 7.19035 13.2462 7.07763 13.1884 6.80883C12.7722 4.90409 11.3617 3.48781 9.46853 3.07738C9.04943 2.98778 8.11585 2.97333 7.70542 3.04848ZM9.15638 5.71916C9.83272 5.95328 10.3327 6.46198 10.5582 7.13832C10.616 7.31464 10.6247 7.40135 10.6247 7.76264C10.6247 8.12393 10.616 8.21064 10.5582 8.38696C10.3299 9.07197 9.80959 9.59223 9.12458 9.82057C8.94827 9.87838 8.86156 9.88705 8.50027 9.88705C8.13897 9.88705 8.05226 9.87838 7.87595 9.82057C7.19094 9.59223 6.67068 9.07197 6.44234 8.38696C6.38453 8.21064 6.37586 8.12393 6.37586 7.76264C6.37586 7.40135 6.38453 7.31464 6.44234 7.13832C6.66778 6.4562 7.20539 5.91571 7.8615 5.71627C8.13897 5.62956 8.1592 5.62667 8.57253 5.63823C8.88468 5.64401 8.98295 5.65847 9.15638 5.71916Z" fill="#558CFC"/>
<path d="M4.64182 13.0663C4.08687 13.2282 3.78917 13.338 3.42787 13.5143C2.77754 13.8294 2.32954 14.2138 2.12432 14.6271C2.02316 14.8323 2.0116 14.8757 2.00293 15.13C1.99426 15.3584 2.00293 15.4393 2.05496 15.5925C2.36711 16.5174 3.78049 17.2458 5.94248 17.6013C6.85872 17.7516 7.24313 17.7776 8.50044 17.7776C9.75774 17.7776 10.1422 17.7516 11.0584 17.6013C12.9313 17.2949 14.2811 16.6908 14.7841 15.9307C14.9517 15.6792 15.0124 15.4537 14.9979 15.13C14.9893 14.8757 14.9777 14.8323 14.8765 14.6271C14.6164 14.0982 13.9343 13.6068 12.9949 13.2686C12.6741 13.153 11.9082 12.9334 11.8821 12.9507C11.8735 12.9565 11.3648 13.7455 10.752 14.7023C9.56698 16.5608 9.4687 16.6937 9.15655 16.8469C8.71432 17.0637 8.28655 17.0637 7.84433 16.8469C7.56107 16.7082 7.39921 16.5116 6.83559 15.6243C5.6361 13.7427 5.11295 12.9363 5.0956 12.9391C5.08404 12.9391 4.88172 12.9969 4.64182 13.0663Z" fill="#558CFC"/>
</svg>
