<svg width="32" height="33" viewBox="0 0 32 33" fill="none" xmlns="http://www.w3.org/2000/svg">
<path d="M9.33333 22.2331C12.2667 22.2331 14.6667 19.7931 14.6667 16.8331C14.6667 15.2864 13.9067 13.8197 12.3867 12.5797C10.8667 11.3397 9.72 9.49974 9.33333 7.56641C8.94667 9.49974 7.81333 11.3531 6.28 12.5797C4.74667 13.8064 4 15.2997 4 16.8331C4 19.7931 6.4 22.2331 9.33333 22.2331Z" stroke="#558CFC" stroke-width="2.66667" stroke-linecap="round" stroke-linejoin="round"/>
<path d="M16.7458 9.2997C17.6628 7.83453 18.3129 6.21843 18.6658 4.52637C19.3325 7.8597 21.3325 11.0597 23.9991 13.193C26.6658 15.3264 27.9991 17.8597 27.9991 20.5264C28.0068 22.3694 27.467 24.1732 26.4482 25.7092C25.4294 27.2451 23.9776 28.4439 22.2766 29.1537C20.5757 29.8635 18.7024 30.0522 16.894 29.6961C15.0857 29.3399 13.4239 28.4548 12.1191 27.153" stroke="#558CFC" stroke-width="2.66667" stroke-linecap="round" stroke-linejoin="round"/>
</svg>
