<svg width="36" height="36" viewBox="0 0 36 36" fill="none" xmlns="http://www.w3.org/2000/svg">
<path d="M22.5 31.5V19.5C22.5 19.1022 22.342 18.7206 22.0607 18.4393C21.7794 18.158 21.3978 18 21 18H15C14.6022 18 14.2206 18.158 13.9393 18.4393C13.658 18.7206 13.5 19.1022 13.5 19.5V31.5" stroke="#558CFC" stroke-width="3" stroke-linecap="round" stroke-linejoin="round"/>
<path d="M4.5 15.0007C4.4999 14.5643 4.595 14.1332 4.77868 13.7373C4.96236 13.3414 5.2302 12.9904 5.5635 12.7087L16.0635 3.70872C16.605 3.25108 17.291 3 18 3C18.709 3 19.395 3.25108 19.9365 3.70872L30.4365 12.7087C30.7698 12.9904 31.0376 13.3414 31.2213 13.7373C31.405 14.1332 31.5001 14.5643 31.5 15.0007V28.5007C31.5 29.2964 31.1839 30.0594 30.6213 30.622C30.0587 31.1846 29.2956 31.5007 28.5 31.5007H7.5C6.70435 31.5007 5.94129 31.1846 5.37868 30.622C4.81607 30.0594 4.5 29.2964 4.5 28.5007V15.0007Z" stroke="#558CFC" stroke-width="3" stroke-linecap="round" stroke-linejoin="round"/>
</svg>
