<svg width="37" height="36" viewBox="0 0 37 36" fill="none" xmlns="http://www.w3.org/2000/svg">
<path d="M9.33398 33V6C9.33398 5.20435 9.65005 4.44129 10.2127 3.87868C10.7753 3.31607 11.5383 3 12.334 3H24.334C25.1296 3 25.8927 3.31607 26.4553 3.87868C27.0179 4.44129 27.334 5.20435 27.334 6V33H9.33398Z" stroke="#558CFC" stroke-width="3" stroke-linecap="round" stroke-linejoin="round"/>
<path d="M9.33398 18H6.33398C5.53833 18 4.77527 18.3161 4.21266 18.8787C3.65005 19.4413 3.33398 20.2044 3.33398 21V30C3.33398 30.7956 3.65005 31.5587 4.21266 32.1213C4.77527 32.6839 5.53833 33 6.33398 33H9.33398" stroke="#558CFC" stroke-width="3" stroke-linecap="round" stroke-linejoin="round"/>
<path d="M27.334 13.5H30.334C31.1296 13.5 31.8927 13.8161 32.4553 14.3787C33.0179 14.9413 33.334 15.7044 33.334 16.5V30C33.334 30.7956 33.0179 31.5587 32.4553 32.1213C31.8927 32.6839 31.1296 33 30.334 33H27.334" stroke="#558CFC" stroke-width="3" stroke-linecap="round" stroke-linejoin="round"/>
<path d="M15.334 9H21.334" stroke="#558CFC" stroke-width="3" stroke-linecap="round" stroke-linejoin="round"/>
<path d="M15.334 15H21.334" stroke="#558CFC" stroke-width="3" stroke-linecap="round" stroke-linejoin="round"/>
<path d="M15.334 21H21.334" stroke="#558CFC" stroke-width="3" stroke-linecap="round" stroke-linejoin="round"/>
<path d="M15.334 27H21.334" stroke="#558CFC" stroke-width="3" stroke-linecap="round" stroke-linejoin="round"/>
</svg>
