<svg width="41" height="41" viewBox="0 0 41 41" fill="none" xmlns="http://www.w3.org/2000/svg">
<path d="M27.2559 18.8333L30.5892 22.1667L37.2559 15.5" stroke="#558CFC" stroke-width="3.33333" stroke-linecap="round" stroke-linejoin="round"/>
<path d="M27.2572 35.5V32.1667C27.2572 30.3986 26.5548 28.7029 25.3045 27.4526C24.0543 26.2024 22.3586 25.5 20.5905 25.5H10.5905C8.82238 25.5 7.12669 26.2024 5.87645 27.4526C4.62621 28.7029 3.92383 30.3986 3.92383 32.1667V35.5" stroke="#558CFC" stroke-width="3.33333" stroke-linecap="round" stroke-linejoin="round"/>
<path d="M15.5905 18.8333C19.2724 18.8333 22.2572 15.8486 22.2572 12.1667C22.2572 8.48477 19.2724 5.5 15.5905 5.5C11.9086 5.5 8.92383 8.48477 8.92383 12.1667C8.92383 15.8486 11.9086 18.8333 15.5905 18.8333Z" stroke="#558CFC" stroke-width="3.33333" stroke-linecap="round" stroke-linejoin="round"/>
</svg>
