<svg width="41" height="41" viewBox="0 0 41 41" fill="none" xmlns="http://www.w3.org/2000/svg">
<path d="M26.3844 21.9834L28.9094 36.1934C28.9377 36.3607 28.9142 36.5327 28.8421 36.6863C28.77 36.8399 28.6528 36.9679 28.506 37.0531C28.3592 37.1382 28.1899 37.1766 28.0208 37.1629C27.8516 37.1493 27.6907 37.0843 27.5594 36.9767L21.5928 32.4984C21.3047 32.2832 20.9548 32.1669 20.5953 32.1669C20.2357 32.1669 19.8858 32.2832 19.5978 32.4984L13.6211 36.9751C13.49 37.0825 13.3292 37.1473 13.1603 37.161C12.9913 37.1746 12.8222 37.1364 12.6755 37.0515C12.5289 36.9666 12.4116 36.8389 12.3393 36.6856C12.267 36.5323 12.2432 36.3606 12.2711 36.1934L14.7944 21.9834" stroke="#558CFC" stroke-width="3.33333" stroke-linecap="round" stroke-linejoin="round"/>
<path d="M20.5898 23.833C26.1127 23.833 30.5898 19.3559 30.5898 13.833C30.5898 8.31016 26.1127 3.83301 20.5898 3.83301C15.067 3.83301 10.5898 8.31016 10.5898 13.833C10.5898 19.3559 15.067 23.833 20.5898 23.833Z" stroke="#558CFC" stroke-width="3.33333" stroke-linecap="round" stroke-linejoin="round"/>
</svg>
