<svg width="88" height="89" viewBox="0 0 88 89" fill="none" xmlns="http://www.w3.org/2000/svg">
<g opacity="0.21">
<path d="M56.7481 47.4639L62.3031 78.7259C62.3653 79.094 62.3137 79.4723 62.155 79.8103C61.9964 80.1483 61.7384 80.4298 61.4155 80.6171C61.0926 80.8045 60.7202 80.8888 60.348 80.8588C59.9759 80.8288 59.6218 80.6859 59.3331 80.4492L46.2064 70.5969C45.5727 70.1234 44.8029 69.8676 44.0119 69.8676C43.2209 69.8676 42.4511 70.1234 41.8174 70.5969L28.6688 80.4455C28.3803 80.6818 28.0266 80.8245 27.6549 80.8545C27.2832 80.8846 26.9112 80.8006 26.5885 80.6137C26.2658 80.4269 26.0078 80.1461 25.8488 79.8088C25.6898 79.4715 25.6375 79.0937 25.6988 78.7259L31.2501 47.4639" stroke="#91B5FF" stroke-width="7.33333" stroke-linecap="round" stroke-linejoin="round"/>
<path d="M44 51.5322C56.1503 51.5322 66 41.6825 66 29.5322C66 17.382 56.1503 7.53223 44 7.53223C31.8497 7.53223 22 17.382 22 29.5322C22 41.6825 31.8497 51.5322 44 51.5322Z" stroke="#91B5FF" stroke-width="7.33333" stroke-linecap="round" stroke-linejoin="round"/>
</g>
</svg>
