<svg width="25" height="25" viewBox="0 0 25 25" fill="none" xmlns="http://www.w3.org/2000/svg">
<path d="M2.66602 9.90092C2.66604 8.78812 3.00361 7.7015 3.63415 6.78458C4.26469 5.86766 5.15853 5.16358 6.19762 4.76532C7.23672 4.36706 8.37217 4.29336 9.45403 4.55396C10.5359 4.81456 11.5132 5.3972 12.257 6.22492C12.3094 6.28093 12.3727 6.32559 12.4431 6.35612C12.5134 6.38665 12.5893 6.4024 12.666 6.4024C12.7427 6.4024 12.8186 6.38665 12.8889 6.35612C12.9593 6.32559 13.0226 6.28093 13.075 6.22492C13.8165 5.39182 14.794 4.80429 15.8776 4.54052C16.9613 4.27675 18.0995 4.34927 19.1409 4.7484C20.1823 5.14754 21.0774 5.85437 21.7071 6.77482C22.3369 7.69527 22.6713 8.78568 22.666 9.90092C22.666 12.1909 21.166 13.9009 19.666 15.4009L14.174 20.7139C13.9877 20.9279 13.7579 21.0998 13.5001 21.2182C13.2422 21.3366 12.9621 21.3988 12.6783 21.4006C12.3946 21.4024 12.1137 21.3438 11.8543 21.2286C11.5949 21.1135 11.363 20.9446 11.174 20.7329L5.66602 15.4009C4.16602 13.9009 2.66602 12.2009 2.66602 9.90092Z" stroke="#558CFC" stroke-width="2" stroke-linecap="round" stroke-linejoin="round"/>
</svg>
