<svg width="51" height="50" viewBox="0 0 51 50" fill="none" xmlns="http://www.w3.org/2000/svg">
<path d="M41.9974 27.0836C41.9974 37.5003 34.7057 42.7086 26.0391 45.7295C25.5852 45.8832 25.0923 45.8759 24.6432 45.7086C15.9557 42.7086 8.66406 37.5003 8.66406 27.0836V12.5003C8.66406 11.9478 8.88356 11.4178 9.27426 11.0271C9.66496 10.6364 10.1949 10.417 10.7474 10.417C14.9141 10.417 20.1224 7.91695 23.7474 4.75029C24.1888 4.3732 24.7502 4.16602 25.3307 4.16602C25.9112 4.16602 26.4727 4.3732 26.9141 4.75029C30.5599 7.93779 35.7474 10.417 39.9141 10.417C40.4666 10.417 40.9965 10.6364 41.3872 11.0271C41.7779 11.4178 41.9974 11.9478 41.9974 12.5003V27.0836Z" stroke="#558CFC" stroke-width="2" stroke-linecap="round" stroke-linejoin="round"/>
</svg>
