<svg width="51" height="50" viewBox="0 0 51 50" fill="none" xmlns="http://www.w3.org/2000/svg">
<path d="M25.332 37.4998V10.4165" stroke="#558CFC" stroke-width="2" stroke-linecap="round" stroke-linejoin="round"/>
<path d="M31.582 27.0833C29.7795 26.5564 28.1963 25.4596 27.0695 23.9573C25.9428 22.4549 25.3332 20.6279 25.332 18.75C25.3309 20.6279 24.7213 22.4549 23.5945 23.9573C22.4678 25.4596 20.8845 26.5564 19.082 27.0833" stroke="#558CFC" stroke-width="2" stroke-linecap="round" stroke-linejoin="round"/>
<path d="M36.9945 13.5418C37.4739 12.7115 37.7559 11.7822 37.8186 10.8255C37.8814 9.86887 37.7232 8.91062 37.3563 8.02489C36.9895 7.13916 36.4238 6.34969 35.703 5.71757C34.9822 5.08544 34.1257 4.62761 33.1997 4.37947C32.2736 4.13134 31.3029 4.09957 30.3627 4.28661C29.4224 4.47365 28.5377 4.87449 27.7772 5.45812C27.0166 6.04176 26.4005 6.79254 25.9765 7.65238C25.5525 8.51222 25.332 9.45808 25.332 10.4168C25.3321 9.45808 25.1116 8.51222 24.6876 7.65238C24.2636 6.79254 23.6475 6.04176 22.8869 5.45812C22.1263 4.87449 21.2417 4.47365 20.3014 4.28661C19.3611 4.09957 18.3904 4.13134 17.4644 4.37947C16.5384 4.62761 15.6818 5.08544 14.961 5.71757C14.2403 6.34969 13.6746 7.13916 13.3077 8.02489C12.9409 8.91062 12.7827 9.86887 12.8454 10.8255C12.9082 11.7822 13.1901 12.7115 13.6695 13.5418" stroke="#558CFC" stroke-width="2" stroke-linecap="round" stroke-linejoin="round"/>
<path d="M37.8262 10.6768C39.0508 10.9916 40.1876 11.581 41.1507 12.4003C42.1138 13.2196 42.8778 14.2473 43.3848 15.4056C43.8919 16.5639 44.1288 17.8224 44.0774 19.0857C44.0261 20.3491 43.688 21.5842 43.0887 22.6976" stroke="#558CFC" stroke-width="2" stroke-linecap="round" stroke-linejoin="round"/>
<path d="M37.832 37.5002C39.6664 37.5001 41.4495 36.8948 42.9048 35.778C44.3601 34.6613 45.4063 33.0956 45.881 31.3237C46.3558 29.5518 46.2327 27.6728 45.5307 25.978C44.8288 24.2833 43.5873 22.8675 41.9987 21.9502" stroke="#558CFC" stroke-width="2" stroke-linecap="round" stroke-linejoin="round"/>
<path d="M41.9286 36.4229C42.0746 37.5525 41.9875 38.7001 41.6726 39.7948C41.3577 40.8894 40.8218 41.9079 40.0978 42.7873C39.3739 43.6668 38.4774 44.3884 37.4636 44.9078C36.4498 45.4271 35.3404 45.7331 34.2037 45.8069C33.067 45.8806 31.9273 45.7206 30.8549 45.3366C29.7825 44.9527 28.8002 44.3529 27.9687 43.5744C27.1372 42.796 26.4741 41.8553 26.0204 40.8105C25.5667 39.7657 25.3319 38.639 25.3307 37.4999C25.3295 38.639 25.0948 39.7657 24.6411 40.8105C24.1873 41.8553 23.5242 42.796 22.6927 43.5744C21.8612 44.3529 20.8789 44.9527 19.8065 45.3366C18.7341 45.7206 17.5944 45.8806 16.4578 45.8069C15.3211 45.7331 14.2116 45.4271 13.1978 44.9078C12.1841 44.3884 11.2875 43.6668 10.5636 42.7873C9.83968 41.9079 9.30371 40.8894 8.98882 39.7948C8.67393 38.7001 8.5868 37.5525 8.73281 36.4229" stroke="#558CFC" stroke-width="2" stroke-linecap="round" stroke-linejoin="round"/>
<path d="M12.833 37.5002C10.9986 37.5001 9.21548 36.8948 7.76019 35.778C6.3049 34.6613 5.25874 33.0956 4.78396 31.3237C4.30918 29.5518 4.43231 27.6728 5.13425 25.978C5.8362 24.2833 7.07773 22.8675 8.6663 21.9502" stroke="#558CFC" stroke-width="2" stroke-linecap="round" stroke-linejoin="round"/>
<path d="M12.8382 10.6772C11.6136 10.9921 10.4768 11.5815 9.5137 12.4008C8.55063 13.2201 7.78663 14.2478 7.27956 15.4061C6.77248 16.5644 6.53563 17.8229 6.58694 19.0862C6.63825 20.3496 6.97638 21.5847 7.57572 22.6981" stroke="#558CFC" stroke-width="2" stroke-linecap="round" stroke-linejoin="round"/>
</svg>
