<svg width="51" height="50" viewBox="0 0 51 50" fill="none" xmlns="http://www.w3.org/2000/svg">
<path d="M31.9154 4.16699H19.4154C18.2648 4.16699 17.332 5.09973 17.332 6.25033V10.417C17.332 11.5676 18.2648 12.5003 19.4154 12.5003H31.9154C33.066 12.5003 33.9987 11.5676 33.9987 10.417V6.25033C33.9987 5.09973 33.066 4.16699 31.9154 4.16699Z" stroke="#558CFC" stroke-width="2" stroke-linecap="round" stroke-linejoin="round"/>
<path d="M34 8.33301H38.1667C39.2717 8.33301 40.3315 8.77199 41.1129 9.5534C41.8943 10.3348 42.3333 11.3946 42.3333 12.4997V41.6663C42.3333 42.7714 41.8943 43.8312 41.1129 44.6126C40.3315 45.394 39.2717 45.833 38.1667 45.833H13.1667C12.0616 45.833 11.0018 45.394 10.2204 44.6126C9.43899 43.8312 9 42.7714 9 41.6663V12.4997C9 11.3946 9.43899 10.3348 10.2204 9.5534C11.0018 8.77199 12.0616 8.33301 13.1667 8.33301H17.3333" stroke="#558CFC" stroke-width="2" stroke-linecap="round" stroke-linejoin="round"/>
<path d="M19.416 29.1667L23.5827 33.3333L31.916 25" stroke="#558CFC" stroke-width="2" stroke-linecap="round" stroke-linejoin="round"/>
</svg>
