<svg width="51" height="50" viewBox="0 0 51 50" fill="none" xmlns="http://www.w3.org/2000/svg">
<path d="M15.2493 33.9582C19.8327 33.9582 23.5827 30.1457 23.5827 25.5207C23.5827 23.104 22.3952 20.8123 20.0202 18.8748C17.6452 16.9373 15.8535 14.0623 15.2493 11.0415C14.6452 14.0623 12.8743 16.9582 10.4785 18.8748C8.08268 20.7915 6.91602 23.1248 6.91602 25.5207C6.91602 30.1457 10.666 33.9582 15.2493 33.9582Z" stroke="#558CFC" stroke-width="2" stroke-linecap="round" stroke-linejoin="round"/>
<path d="M26.8327 13.7498C28.2655 11.4605 29.2812 8.93535 29.8327 6.2915C30.8743 11.4998 33.9993 16.4998 38.166 19.8332C42.3327 23.1665 44.416 27.1248 44.416 31.2915C44.4279 34.1713 43.5845 36.9897 41.9927 39.3896C40.4008 41.7895 38.1323 43.6627 35.4746 44.7717C32.8169 45.8807 29.8898 46.1757 27.0643 45.6192C24.2388 45.0626 21.6421 43.6797 19.6035 41.6457" stroke="#558CFC" stroke-width="2" stroke-linecap="round" stroke-linejoin="round"/>
</svg>
