<svg width="50" height="50" viewBox="0 0 50 50" fill="none" xmlns="http://www.w3.org/2000/svg">
<path d="M4.16797 19.7918C4.16801 17.4735 4.87129 15.2097 6.18491 13.2994C7.49854 11.3892 9.36071 9.92233 11.5255 9.09262C13.6903 8.26292 16.0558 8.10938 18.3097 8.6523C20.5635 9.19522 22.5997 10.409 24.1492 12.1335C24.2584 12.2502 24.3903 12.3432 24.5369 12.4068C24.6834 12.4704 24.8415 12.5032 25.0013 12.5032C25.1611 12.5032 25.3192 12.4704 25.4657 12.4068C25.6123 12.3432 25.7442 12.2502 25.8534 12.1335C27.3981 10.3978 29.4347 9.17381 31.6922 8.62429C33.9497 8.07478 36.3211 8.22585 38.4906 9.05738C40.6602 9.88892 42.525 11.3615 43.837 13.2791C45.1489 15.1967 45.8457 17.4684 45.8346 19.7918C45.8346 24.5626 42.7096 28.1251 39.5846 31.2501L28.143 42.3189C27.7548 42.7647 27.2762 43.1229 26.7389 43.3695C26.2016 43.6161 25.6181 43.7456 25.0269 43.7494C24.4358 43.7531 23.8506 43.631 23.3102 43.3912C22.7699 43.1514 22.2868 42.7994 21.893 42.3585L10.418 31.2501C7.29297 28.1251 4.16797 24.5835 4.16797 19.7918Z" stroke="#558CFC" stroke-width="2" stroke-linecap="round" stroke-linejoin="round"/>
</svg>
