<svg width="32" height="33" viewBox="0 0 32 33" fill="none" xmlns="http://www.w3.org/2000/svg">
<path d="M13.9994 27.8337L27.3327 14.5003C27.9557 13.8898 28.4515 13.1617 28.7915 12.3584C29.1314 11.555 29.3087 10.6922 29.3131 9.81986C29.3175 8.94753 29.1489 8.08299 28.8171 7.27622C28.4853 6.46945 27.9969 5.73645 27.3801 5.11962C26.7632 4.50279 26.0302 4.01435 25.2235 3.68256C24.4167 3.35077 23.5522 3.1822 22.6798 3.18661C21.8075 3.19101 20.9447 3.3683 20.1413 3.70823C19.3379 4.04815 18.6099 4.54396 17.9994 5.167L4.66602 18.5003C4.04299 19.1109 3.54718 19.8389 3.20725 20.6423C2.86733 21.4457 2.69004 22.3085 2.68563 23.1808C2.68123 24.0531 2.84979 24.9177 3.18158 25.7244C3.51337 26.5312 4.00181 27.2642 4.61864 27.881C5.23548 28.4979 5.96847 28.9863 6.77524 29.3181C7.58201 29.6499 8.44656 29.8185 9.31888 29.8141C10.1912 29.8096 11.054 29.6324 11.8574 29.2924C12.6608 28.9525 13.3888 28.4567 13.9994 27.8337Z" stroke="#558CFC" stroke-width="2.66667" stroke-linecap="round" stroke-linejoin="round"/>
<path d="M11.334 11.833L20.6673 21.1663" stroke="#558CFC" stroke-width="2.66667" stroke-linecap="round" stroke-linejoin="round"/>
</svg>
