<svg width="46" height="46" viewBox="0 0 46 46" fill="none" xmlns="http://www.w3.org/2000/svg">
<path d="M21.8097 4.2153C19.4188 4.51312 17.0363 5.91121 15.5555 7.87184C14.902 8.7322 14.2153 10.1551 13.9423 11.2057C13.6776 12.2067 13.5866 13.9523 13.7355 15.0691C14.3808 19.8921 17.5658 24.8391 20.8997 26.1876C21.8427 26.5681 22.3308 26.6509 23.3815 26.6012C24.8457 26.5433 26.0287 26.0304 27.3772 24.8805C29.6025 22.9861 31.5466 19.5198 32.2912 16.1114C32.4484 15.3834 32.4732 15.0029 32.4732 13.6379C32.4814 11.8593 32.3904 11.3546 31.861 10.0227C30.2809 6.06011 26.1528 3.67758 21.8097 4.2153Z" fill="#91B5FF"/>
<path d="M14.9025 25.3024C11.6017 26.0138 8.74765 28.1813 7.22547 31.1594C6.68775 32.2018 6.26584 33.451 6.09211 34.5512C5.91011 35.6184 5.95975 37.728 6.17484 38.4973C6.80357 40.7392 8.37538 41.8147 11.5935 42.1869C12.9833 42.3524 33.2018 42.3524 34.5916 42.1869C37.8097 41.8147 39.3815 40.7392 40.0102 38.4973C40.2253 37.728 40.2749 35.6184 40.0929 34.5512C39.8199 32.8719 39.0423 31.0188 38.0413 29.6538C37.0651 28.3219 35.4933 26.9983 34.0125 26.2537C32.9039 25.6994 30.9764 25.1369 30.1657 25.1369C29.9258 25.1369 29.8927 25.17 29.843 25.4182C29.7024 26.1544 28.205 27.9083 26.2196 29.6538C25.0697 30.6631 23.2001 32.1687 23.0925 32.1687C22.985 32.1687 21.1153 30.6631 19.9654 29.6538C17.98 27.9083 16.4826 26.1544 16.342 25.4182C16.2924 25.1534 16.2758 25.1369 15.9449 25.1452C15.7629 25.1452 15.2914 25.2196 14.9025 25.3024ZM32.6888 32.3838C32.7385 32.4996 32.7716 32.9794 32.7716 33.4592V34.3196H33.6898C34.1945 34.3196 34.6743 34.361 34.7653 34.4023C34.9059 34.4851 34.9225 34.5843 34.9225 35.4778C34.9225 36.7518 34.9556 36.7187 33.7147 36.7187H32.7716V37.579C32.7716 38.0589 32.7385 38.5387 32.6888 38.6545C32.6061 38.8696 32.6061 38.8696 31.5803 38.8696C30.6372 38.8696 30.5379 38.853 30.4552 38.7124C30.4139 38.6214 30.3725 38.1416 30.3725 37.637V36.7187H29.4542C28.9496 36.7187 28.4698 36.6773 28.3788 36.636C28.2381 36.5532 28.2216 36.454 28.2216 35.5191C28.2216 34.5843 28.2381 34.4851 28.3788 34.4023C28.4698 34.361 28.9496 34.3196 29.4542 34.3196H30.3725V33.4013C30.3725 32.8967 30.4139 32.4169 30.4552 32.3259C30.5379 32.1852 30.6372 32.1687 31.5803 32.1687C32.6061 32.1687 32.6061 32.1687 32.6888 32.3838Z" fill="#91B5FF"/>
</svg>
