<svg width="40" height="40" viewBox="0 0 40 40" fill="none" xmlns="http://www.w3.org/2000/svg">
<path d="M31.6667 18.333H8.33333C6.49238 18.333 5 19.8254 5 21.6663V33.333C5 35.174 6.49238 36.6663 8.33333 36.6663H31.6667C33.5076 36.6663 35 35.174 35 33.333V21.6663C35 19.8254 33.5076 18.333 31.6667 18.333Z" stroke="white" stroke-width="3.33333" stroke-linecap="round" stroke-linejoin="round"/>
<path d="M11.666 18.333V11.6663C11.666 9.4562 12.544 7.33659 14.1068 5.77378C15.6696 4.21098 17.7892 3.33301 19.9993 3.33301C22.2095 3.33301 24.3291 4.21098 25.8919 5.77378C27.4547 7.33659 28.3327 9.4562 28.3327 11.6663V18.333" stroke="white" stroke-width="3.33333" stroke-linecap="round" stroke-linejoin="round"/>
</svg>
