<svg width="41" height="41" viewBox="0 0 41 41" fill="none" xmlns="http://www.w3.org/2000/svg">
<path d="M32.2663 18.833H8.93294C7.09199 18.833 5.59961 20.3254 5.59961 22.1663V33.833C5.59961 35.674 7.09199 37.1663 8.93294 37.1663H32.2663C34.1072 37.1663 35.5996 35.674 35.5996 33.833V22.1663C35.5996 20.3254 34.1072 18.833 32.2663 18.833Z" stroke="#558CFC" stroke-width="3.33333" stroke-linecap="round" stroke-linejoin="round"/>
<path d="M12.2656 18.833V12.1663C12.2656 9.9562 13.1436 7.83659 14.7064 6.27378C16.2692 4.71098 18.3888 3.83301 20.599 3.83301C22.8091 3.83301 24.9287 4.71098 26.4915 6.27378C28.0543 7.83659 28.9323 9.9562 28.9323 12.1663V18.833" stroke="#558CFC" stroke-width="3.33333" stroke-linecap="round" stroke-linejoin="round"/>
</svg>
