<svg width="41" height="54" viewBox="0 0 41 54" fill="none" xmlns="http://www.w3.org/2000/svg">
<path d="M37.4739 22.5397C37.4739 33.5659 25.2643 45.0493 21.1643 48.5958C20.7823 48.8836 20.3174 49.0392 19.8395 49.0392C19.3616 49.0392 18.8967 48.8836 18.5147 48.5958C14.4147 45.0493 2.20508 33.5659 2.20508 22.5397C2.20508 17.8542 4.06298 13.3606 7.37008 10.0475C10.6772 6.73435 15.1626 4.87305 19.8395 4.87305C24.5164 4.87305 29.0018 6.73435 32.3089 10.0475C35.616 13.3606 37.4739 17.8542 37.4739 22.5397Z" stroke="#558CFC" stroke-width="3.6" stroke-linecap="round" stroke-linejoin="round"/>
<path d="M19.8395 29.1641C23.4917 29.1641 26.4524 26.1979 26.4524 22.5391C26.4524 18.8802 23.4917 15.9141 19.8395 15.9141C16.1873 15.9141 13.2266 18.8802 13.2266 22.5391C13.2266 26.1979 16.1873 29.1641 19.8395 29.1641Z" stroke="#558CFC" stroke-width="3.6" stroke-linecap="round" stroke-linejoin="round"/>
</svg>
