<svg width="14" height="14" viewBox="0 0 14 14" fill="none" xmlns="http://www.w3.org/2000/svg">
<g clip-path="url(#clip0_152_6287)">
<path d="M7.20428 0.0328126C7.18514 0.0929689 7.05663 1.07734 7.06483 1.08828C7.0703 1.09375 7.20155 1.12109 7.35741 1.14844C8.71913 1.39453 9.97147 2.05352 10.9613 3.03789C11.943 4.0168 12.5691 5.1707 12.8644 6.54063C12.9027 6.71016 12.9219 6.75391 12.9601 6.75391C13.0285 6.75391 13.9828 6.58711 13.9965 6.57344C14.0183 6.55156 13.9144 6.07031 13.8078 5.70117C13.2199 3.65313 11.8445 1.93594 9.95506 0.891407C9.25506 0.503125 8.40194 0.199609 7.60897 0.0546875C7.26717 -0.00820303 7.22069 -0.0109372 7.20428 0.0328126Z" fill="#558CFC"/>
<path d="M1.99002 1.39169C1.77674 1.47646 1.63181 1.60498 0.942752 2.30224C0.259158 2.99404 0.199002 3.0706 0.0814236 3.41787C0.00486111 3.64209 -0.025217 4.29834 0.0240017 4.65107C0.168924 5.66005 0.765017 7.05458 1.57439 8.28779C2.75564 10.0843 4.38806 11.6538 6.19275 12.7202C7.37674 13.4202 8.39666 13.8249 9.30994 13.9616C9.67908 14.0163 10.3299 14.0026 10.5349 13.9343C10.9178 13.8112 10.997 13.7511 11.7107 13.0429C12.0853 12.6737 12.4299 12.3101 12.4791 12.2362C12.6131 12.0311 12.6678 11.8452 12.6541 11.6128C12.6377 11.2491 12.6103 11.2136 11.5002 10.0979C10.5896 9.18466 10.4994 9.10263 10.3217 9.01787C10.1521 8.93857 10.1029 8.92763 9.89783 8.92763C9.68728 8.92763 9.64627 8.93583 9.474 9.0206C9.30721 9.10263 9.19783 9.19834 8.65096 9.73974C8.19158 10.1964 8.00291 10.3632 7.95642 10.3632C7.92088 10.3632 7.74041 10.2839 7.55447 10.1854C6.82986 9.80537 6.23377 9.35146 5.50642 8.62685C4.62869 7.75458 4.04627 6.99169 3.73181 6.30263C3.67986 6.18505 3.63611 6.05927 3.63611 6.02099C3.63611 5.9663 3.76736 5.81591 4.24861 5.33193C4.58494 4.99287 4.89119 4.66474 4.92947 4.60458C5.10994 4.31201 5.12635 3.98115 4.97322 3.66396C4.89666 3.50537 4.77361 3.37412 3.89861 2.49912C2.76111 1.36435 2.75291 1.35888 2.35096 1.34521C2.17322 1.34247 2.08845 1.35341 1.99002 1.39169Z" fill="#558CFC"/>
<path d="M6.99088 3.325C6.94986 3.62031 6.92525 3.87187 6.93619 3.88281C6.94713 3.89375 7.04283 3.91562 7.144 3.93477C7.52682 4.00039 8.03541 4.2082 8.41275 4.44883C9.22213 4.96016 9.85924 5.87617 10.037 6.77852C10.0534 6.87148 10.0835 6.94531 10.0999 6.94531C10.1272 6.94531 11.1608 6.77578 11.1745 6.76758C11.1936 6.75937 11.0596 6.23711 10.9749 5.99375C10.4526 4.4625 9.16744 3.28398 7.59518 2.8875C7.45572 2.85195 7.27799 2.81367 7.20416 2.80273L7.06744 2.78633L6.99088 3.325Z" fill="#558CFC"/>
</g>
<defs>
<clipPath id="clip0_152_6287">
<rect width="14" height="14" fill="white"/>
</clipPath>
</defs>
</svg>
