<svg width="18" height="20" viewBox="0 0 18 20" fill="none" xmlns="http://www.w3.org/2000/svg">
<path d="M2.50666 5.2668C2.29885 5.3625 2.12658 5.55117 2.06643 5.74805C2.03908 5.82734 2.02541 5.90938 2.03361 5.92852C2.04182 5.95039 3.61408 6.99766 5.52541 8.2582L9.0008 10.5469L12.4762 8.2582C14.3875 6.99766 15.9598 5.95039 15.968 5.92852C15.9762 5.90938 15.9625 5.82734 15.9352 5.74805C15.875 5.55117 15.7028 5.3625 15.4949 5.2668L15.3309 5.1875H9.0008H2.67072L2.50666 5.2668Z" fill="#558CFC"/>
<path d="M2 10.0027C2 11.6844 2.00547 13.0625 2.01094 13.0625C2.03008 13.0625 6.66211 10.1313 6.70039 10.0957C6.73047 10.0656 6.71133 10.0438 6.59102 9.96445C6.50898 9.9125 5.44258 9.2125 4.22305 8.40586L2 6.94023V10.0027Z" fill="#558CFC"/>
<path d="M13.6379 8.49617C12.3473 9.3493 11.2891 10.0575 11.2891 10.0712C11.2891 10.0985 15.973 13.0708 15.9895 13.0544C15.9949 13.0489 15.9977 11.6735 15.9949 9.99734L15.9867 6.94852L13.6379 8.49617Z" fill="#558CFC"/>
<path d="M4.77617 12.3133C3.27227 13.2648 2.03906 14.0633 2.0336 14.0879C2.01445 14.1699 2.11563 14.3996 2.22227 14.5227C2.28516 14.591 2.40274 14.6812 2.49844 14.7277L2.66524 14.8125H9.00078H15.3363L15.5031 14.7277C15.5988 14.6812 15.7164 14.591 15.7793 14.5227C15.8805 14.4078 15.9734 14.2055 15.9734 14.1016C15.9734 14.0687 15.6262 13.8336 14.9152 13.3852C14.3301 13.016 13.0941 12.234 12.1672 11.6461L10.4801 10.5797L9.82383 11.0117C9.46016 11.2496 9.12656 11.452 9.08281 11.4629C9.03633 11.4738 8.9625 11.4738 8.91602 11.4629C8.86953 11.452 8.57695 11.2742 8.26524 11.0691C7.95625 10.8641 7.65821 10.6699 7.60625 10.6371L7.51055 10.5824L4.77617 12.3133Z" fill="#558CFC"/>
</svg>
