<svg width="10" height="10" viewBox="0 0 10 10" fill="none" xmlns="http://www.w3.org/2000/svg">
<g clip-path="url(#clip0_152_6358)">
<path d="M0.853516 4.67383C0.677734 4.73242 0.519531 4.87305 0.431641 5.04883C0.390625 5.13281 0.384766 5.17383 0.384766 5.35156C0.384766 5.53906 0.388672 5.56641 0.439453 5.66406C0.486328 5.75195 0.912109 6.1875 2.71484 7.99219C4.55859 9.83789 4.95508 10.2246 5.05273 10.2773C5.16406 10.3379 5.17969 10.3418 5.375 10.3418C5.57031 10.3418 5.58594 10.3379 5.69727 10.2773C5.79688 10.2246 6.18945 9.83984 8.04297 7.98242C9.81055 6.21289 10.2793 5.73242 10.3184 5.6543C10.3594 5.57031 10.3652 5.5293 10.3652 5.35156C10.3652 5.16406 10.3594 5.13672 10.3086 5.03516C10.2402 4.90039 10.127 4.78711 9.98438 4.71289C9.88672 4.66406 9.85742 4.6582 9.68164 4.6582C9.33984 4.6582 9.53516 4.48828 7.32422 6.69727L5.375 8.64258L3.42773 6.69727C1.23828 4.51367 1.41211 4.66406 1.09766 4.6543C1 4.65234 0.900391 4.66016 0.853516 4.67383Z" fill="white"/>
</g>
<defs>
<clipPath id="clip0_152_6358">
<rect width="10" height="10" fill="white" transform="translate(0.375 0.5)"/>
</clipPath>
</defs>
</svg>
