<svg width="10" height="6" viewBox="0 0 10 6" fill="none" xmlns="http://www.w3.org/2000/svg">
<path d="M0.478516 0.173828C0.302734 0.232422 0.144531 0.373047 0.0566406 0.548828C0.015625 0.632812 0.00976562 0.673828 0.00976562 0.851562C0.00976562 1.03906 0.0136719 1.06641 0.0644531 1.16406C0.111328 1.25195 0.537109 1.6875 2.33984 3.49219C4.18359 5.33789 4.58008 5.72461 4.67773 5.77734C4.78906 5.83789 4.80469 5.8418 5 5.8418C5.19531 5.8418 5.21094 5.83789 5.32227 5.77734C5.42188 5.72461 5.81445 5.33984 7.66797 3.48242C9.43555 1.71289 9.9043 1.23242 9.94336 1.1543C9.98438 1.07031 9.99023 1.0293 9.99023 0.851562C9.99023 0.664062 9.98438 0.636719 9.93359 0.535156C9.86523 0.400391 9.75195 0.287109 9.60938 0.212891C9.51172 0.164062 9.48242 0.158203 9.30664 0.158203C8.96484 0.158203 9.16016 -0.0117188 6.94922 2.19727L5 4.14258L3.05273 2.19727C0.863281 0.0136719 1.03711 0.164062 0.722656 0.154297C0.625 0.152344 0.525391 0.160156 0.478516 0.173828Z" fill="#171717"/>
</svg>
