<svg width="16" height="17" viewBox="0 0 16 17" fill="none" xmlns="http://www.w3.org/2000/svg">
<g opacity="0.4">
<path d="M3.21148 2.88999C2.84035 3.03029 2.57558 3.36295 2.54842 3.72502L2.53711 3.87891H6.63762H10.7359V3.82233C10.7359 3.79291 10.7246 3.71371 10.711 3.64808C10.6453 3.34032 10.4372 3.07555 10.152 2.93525L9.98003 2.84925L6.66478 2.84473L3.34725 2.8402L3.21148 2.88999Z" fill="white"/>
<path d="M11.3926 4.20383V4.55686H11.7841C12.2186 4.55686 12.2751 4.5727 12.3657 4.71979C12.4087 4.78994 12.4109 4.8352 12.4109 5.4281V6.06173L12.2005 5.85128L11.9923 5.64308L11.7366 5.8988L11.4831 6.15225L12.1122 6.78136C12.4562 7.12533 12.7504 7.4082 12.7617 7.4082C12.7753 7.4082 13.0694 7.12307 13.4179 6.77457L14.0516 6.14094L13.8026 5.89201L13.5537 5.64308L13.3342 5.86259L13.1147 6.07984L13.1079 5.34663L13.1011 4.61117L13.0174 4.44144C12.9088 4.21967 12.7481 4.059 12.5263 3.95038L12.3566 3.86665L11.8746 3.85986L11.3926 3.85081V4.20383Z" fill="white"/>
<path d="M2.54492 5.05569V5.57617H6.64091H10.7369V5.05569V4.5352H6.64091H2.54492V5.05569Z" fill="white"/>
<path d="M2.54492 6.85469C2.54492 7.44759 2.54718 7.48153 2.59697 7.61957C2.70559 7.91828 2.95452 8.16042 3.24418 8.24642C3.39127 8.29167 3.44332 8.29167 6.68617 8.28715L9.97879 8.28036L10.1508 8.19663C10.4382 8.05633 10.6464 7.78929 10.712 7.48153C10.7256 7.41138 10.7369 7.12624 10.7369 6.79811V6.23237H6.64091H2.54492V6.85469Z" fill="white"/>
<path d="M6.65034 9.01148C6.29958 9.13142 6.03933 9.42561 5.96239 9.7809C5.94881 9.84652 5.9375 9.92573 5.9375 9.95514V10.0117H10.0335H14.1295V9.89857C14.1295 9.53876 13.8081 9.13142 13.4347 9.01601C13.2899 8.97075 13.2311 8.97075 10.0244 8.97075C6.98978 8.97301 6.7567 8.97528 6.65034 9.01148Z" fill="white"/>
<path d="M3.25668 10.4864L2.62305 11.12L2.87197 11.369L3.1209 11.6179L3.34041 11.3984L3.55992 11.1811L3.56671 11.9143L3.5735 12.6498L3.65723 12.8195C3.76585 13.0413 3.92652 13.202 4.14829 13.3106L4.31802 13.3943L4.80003 13.4011L5.28204 13.4102V13.0571V12.7041H4.89281C4.45606 12.7041 4.39948 12.6883 4.30896 12.5412C4.26597 12.471 4.2637 12.4258 4.2637 11.8329V11.1992L4.47416 11.4097L4.68235 11.6179L4.93807 11.3622L5.19152 11.1087L4.56242 10.4796C4.21844 10.1356 3.92426 9.85276 3.91294 9.85276C3.89936 9.85276 3.60518 10.1379 3.25668 10.4864Z" fill="white"/>
<path d="M5.9375 11.1885V11.709H10.0335H14.1295V11.1885V10.668H10.0335H5.9375V11.1885Z" fill="white"/>
<path d="M5.9375 12.9299C5.9375 13.258 5.94881 13.5431 5.96239 13.6133C6.02802 13.921 6.23621 14.1858 6.52135 14.3261L6.69333 14.4121H10.0425H13.394L13.5434 14.3397C13.8104 14.2084 13.9892 14.0093 14.0842 13.7332C14.1249 13.6133 14.1295 13.5431 14.1295 12.9819V12.3641H10.0335H5.9375V12.9299Z" fill="white"/>
</g>
</svg>
