<svg width="17" height="17" viewBox="0 0 17 17" fill="none" xmlns="http://www.w3.org/2000/svg">
<g opacity="0.4">
<path d="M5.69495 3.09021C5.53353 3.18899 5.52148 3.23477 5.52148 3.813C5.52148 4.28764 5.5263 4.33823 5.56967 4.41051C5.64195 4.52616 5.75037 4.58398 5.90697 4.58398C6.06358 4.58398 6.172 4.52616 6.24428 4.41051C6.28765 4.33823 6.29246 4.28764 6.29246 3.813C6.29246 3.33837 6.28765 3.28778 6.24428 3.2155C6.172 3.09985 6.06358 3.04203 5.90697 3.04203C5.81783 3.04203 5.74796 3.05648 5.69495 3.09021Z" fill="white"/>
<path d="M10.32 3.09021C10.1585 3.18899 10.1465 3.23477 10.1465 3.813C10.1465 4.28764 10.1513 4.33823 10.1947 4.41051C10.2669 4.52616 10.3754 4.58398 10.532 4.58398C10.6886 4.58398 10.797 4.52616 10.8693 4.41051C10.9126 4.33823 10.9175 4.28764 10.9175 3.813C10.9175 3.33837 10.9126 3.28778 10.8693 3.2155C10.797 3.09985 10.6886 3.04203 10.532 3.04203C10.4428 3.04203 10.373 3.05648 10.32 3.09021Z" fill="white"/>
<path d="M3.61252 3.4743C3.25353 3.58995 2.99574 3.84534 2.87045 4.21155C2.82467 4.34165 2.82227 4.41393 2.82227 5.24033V6.12695H8.21912H13.616V5.24996C13.616 4.44766 13.6112 4.36093 13.5678 4.22119C13.4738 3.91521 13.2666 3.67668 12.9655 3.52972L12.7848 3.44057L12.2403 3.43334L11.6958 3.42371L11.6813 3.90316C11.6717 4.2501 11.6572 4.41634 11.6283 4.51271C11.5199 4.86929 11.2356 5.16082 10.8814 5.28369C10.7079 5.34393 10.4044 5.34875 10.2164 5.29333C9.85986 5.18973 9.5587 4.89339 9.44305 4.52958C9.4045 4.40911 9.39246 4.28865 9.38282 3.90316L9.36836 3.42852H8.21912H7.06988L7.05543 3.90316C7.04579 4.2501 7.03133 4.41634 7.00242 4.51271C6.894 4.86929 6.6097 5.16082 6.25553 5.28369C6.08206 5.34393 5.77849 5.34875 5.59056 5.29333C5.23399 5.18973 4.93282 4.89339 4.81718 4.52958C4.77863 4.40911 4.76658 4.28865 4.75694 3.90316L4.74249 3.42852L4.24617 3.43093C3.83418 3.43093 3.72576 3.43816 3.61252 3.4743Z" fill="white"/>
<path d="M2.82708 10.13L2.83431 13.3657L2.88973 13.5031C3.00537 13.7874 3.25594 14.0379 3.53783 14.1536L3.67757 14.209H8.23117H12.7848L12.9655 14.1198C13.2666 13.9729 13.4738 13.7344 13.5678 13.4284C13.6136 13.2814 13.616 13.1898 13.616 10.0867V6.89673H8.21912H2.82227L2.82708 10.13ZM6.07484 8.50133C6.26517 8.61216 6.30131 8.7519 6.28926 9.3229C6.27963 9.62888 6.2724 9.69153 6.22903 9.76381C6.1182 9.95414 5.97846 9.99028 5.40746 9.97823C5.10147 9.9686 5.03883 9.96137 4.96655 9.918C4.77622 9.80717 4.74008 9.66743 4.75212 9.09643C4.76176 8.70853 4.78585 8.62902 4.92078 8.53024C5.02197 8.45314 5.12075 8.44109 5.56888 8.44591C5.94473 8.45073 6.00015 8.45555 6.07484 8.50133ZM8.77326 8.50133C8.9636 8.61216 8.99974 8.7519 8.98769 9.3229C8.97806 9.62888 8.97083 9.69153 8.92746 9.76381C8.81663 9.95414 8.67689 9.99028 8.10588 9.97823C7.7999 9.9686 7.73726 9.96137 7.66498 9.918C7.47465 9.80717 7.43851 9.66743 7.45055 9.09643C7.46019 8.70853 7.48428 8.62902 7.6192 8.53024C7.7204 8.45314 7.81918 8.44109 8.26731 8.44591C8.64316 8.45073 8.69858 8.45555 8.77326 8.50133ZM11.4717 8.50133C11.662 8.61216 11.6982 8.7519 11.6861 9.3229C11.6765 9.62888 11.6693 9.69153 11.6259 9.76381C11.5151 9.95414 11.3753 9.99028 10.8043 9.97823C10.4983 9.9686 10.4357 9.96137 10.3634 9.918C10.1731 9.80717 10.1369 9.66743 10.149 9.09643C10.1586 8.70853 10.1827 8.62902 10.3176 8.53024C10.4188 8.45314 10.5176 8.44109 10.9657 8.44591C11.3416 8.45073 11.397 8.45555 11.4717 8.50133ZM6.07484 11.1998C6.26517 11.3106 6.30131 11.4503 6.28926 12.0213C6.27963 12.3273 6.2724 12.39 6.22903 12.4622C6.1182 12.6526 5.97846 12.6887 5.40746 12.6767C5.10147 12.667 5.03883 12.6598 4.96655 12.6164C4.77622 12.5056 4.74008 12.3659 4.75212 11.7949C4.76176 11.407 4.78585 11.3274 4.92078 11.2287C5.02197 11.1516 5.12075 11.1395 5.56888 11.1443C5.94473 11.1492 6.00015 11.154 6.07484 11.1998ZM8.77326 11.1998C8.9636 11.3106 8.99974 11.4503 8.98769 12.0213C8.97806 12.3273 8.97083 12.39 8.92746 12.4622C8.81663 12.6526 8.67689 12.6887 8.10588 12.6767C7.7999 12.667 7.73726 12.6598 7.66498 12.6164C7.47465 12.5056 7.43851 12.3659 7.45055 11.7949C7.46019 11.407 7.48428 11.3274 7.6192 11.2287C7.7204 11.1516 7.81918 11.1395 8.26731 11.1443C8.64316 11.1492 8.69858 11.154 8.77326 11.1998Z" fill="white"/>
</g>
</svg>
