<svg width="16" height="17" viewBox="0 0 16 17" fill="none" xmlns="http://www.w3.org/2000/svg">
<g opacity="0.4">
<path d="M3.73879 3.61633C3.38931 3.7267 3.10551 3.97371 2.94522 4.30743L2.848 4.51239L2.84011 5.79997C2.83486 7.05077 2.83486 7.09019 2.88741 7.17427C3.04245 7.42391 3.455 7.43442 3.61529 7.18741C3.65733 7.12172 3.66259 7.01661 3.67573 5.93136C3.68887 4.80932 3.6915 4.74363 3.74142 4.65954C3.80974 4.54392 3.90434 4.4756 4.0331 4.4467C4.08828 4.43356 4.72682 4.42042 5.44944 4.42042C6.71338 4.42042 6.76593 4.41779 6.85002 4.36786C6.97615 4.28903 7.03922 4.17078 7.03922 3.99998C7.03922 3.82918 6.97615 3.71093 6.85002 3.6321C6.76593 3.58217 6.716 3.57955 5.30492 3.58217C4.2039 3.58217 3.82025 3.59006 3.73879 3.61633Z" fill="white"/>
<path d="M8.90971 3.63191C8.66008 3.78432 8.64957 4.1995 8.89657 4.35979C8.96227 4.40446 9.07526 4.40709 10.3628 4.42023C11.8843 4.43337 11.8265 4.42811 11.9789 4.59103L12.0446 4.66198L12.0577 5.86022C12.0709 7.01117 12.0735 7.06372 12.126 7.15306C12.2101 7.29759 12.3284 7.36328 12.5018 7.36328C12.6752 7.36328 12.7935 7.30284 12.8723 7.17409C12.9222 7.09 12.9249 7.03744 12.9249 5.84971C12.9249 4.69089 12.9222 4.59892 12.8723 4.44388C12.7541 4.05498 12.4493 3.75016 12.0604 3.63191C11.9053 3.58199 11.8107 3.57936 10.4443 3.57936C9.04635 3.57936 8.9938 3.58199 8.90971 3.63191Z" fill="white"/>
<path d="M4.73177 5.30719C4.68447 5.33084 4.61615 5.39916 4.57936 5.4596L4.51367 5.57259L4.52156 6.54485C4.52944 7.48032 4.53207 7.52236 4.58462 7.59068C4.61353 7.6301 4.67134 7.68791 4.71075 7.71681C4.77907 7.76937 4.82112 7.77199 5.75396 7.77988C6.69994 7.78776 6.72884 7.78513 6.82344 7.73258C7.03366 7.6117 7.02578 7.659 7.03366 6.53696C7.03891 5.57784 7.03891 5.5358 6.98636 5.45171C6.95746 5.40441 6.89702 5.34398 6.84972 5.31507C6.76826 5.26514 6.7157 5.26252 5.79075 5.26252C4.94725 5.26252 4.80798 5.2704 4.73177 5.30719ZM6.19804 6.51069V6.91798H5.79075H5.38345V6.51069V6.10339H5.79075H6.19804V6.51069Z" fill="white"/>
<path d="M7.65565 5.31382C7.54791 5.37952 7.49799 5.44258 7.45857 5.56083C7.41653 5.68959 7.44543 5.84988 7.52952 5.94973C7.66353 6.11002 7.62149 6.10477 9.07462 6.10477H10.4016V6.39119C10.4016 6.64345 10.4095 6.6855 10.4621 6.7617C10.6276 7.00608 11.0139 7.00608 11.1794 6.76433C11.2425 6.67236 11.2425 6.66185 11.2425 6.10477C11.2425 5.47411 11.2294 5.42419 11.0533 5.31645C10.9692 5.26652 10.9167 5.2639 9.35053 5.2639C7.82382 5.2639 7.72923 5.26652 7.65565 5.31382Z" fill="white"/>
<path d="M7.73988 6.53529C7.6847 6.55631 7.61638 6.5931 7.58484 6.62201C7.46397 6.72974 7.45871 6.77179 7.45871 7.51018V8.20652H4.88354C2.37144 8.20652 2.30312 8.20652 2.20589 8.25908C1.92473 8.40097 1.91422 8.80564 2.18487 9.00535L2.25845 9.06053L7.82134 9.06842C11.6578 9.07367 13.4131 9.06842 13.4788 9.0474C13.6023 9.01323 13.7521 8.84769 13.7758 8.72419C13.7968 8.60857 13.7574 8.44827 13.6864 8.35893C13.5682 8.20915 13.5524 8.20652 12.3489 8.20652H11.2426V7.92273C11.2426 7.60477 11.2085 7.5128 11.0534 7.41821C10.9352 7.34726 10.7092 7.34726 10.591 7.41821C10.4359 7.5128 10.4018 7.60477 10.4018 7.92273V8.20652H10.2047H10.0076V7.55222C10.0076 7.13441 9.99709 6.86901 9.9787 6.8112C9.93666 6.69033 9.85783 6.60624 9.73169 6.54843C9.6371 6.50376 9.54775 6.4985 8.73316 6.50113C8.04732 6.50113 7.81608 6.50901 7.73988 6.53529ZM9.14046 7.78609V8.20652H8.72002H8.29959V7.78609V7.36565H8.72002H9.14046V7.78609Z" fill="white"/>
<path d="M4.73177 9.51031C4.68447 9.53396 4.61615 9.60228 4.57936 9.66272L4.51367 9.77571L4.52156 10.748C4.52944 11.6834 4.53207 11.7255 4.58462 11.7938C4.61353 11.8332 4.67134 11.891 4.71075 11.9199C4.77907 11.9725 4.82112 11.9751 5.75396 11.983C6.69994 11.9909 6.72884 11.9883 6.82344 11.9357C7.03366 11.8148 7.02578 11.8621 7.03366 10.7401C7.03891 9.78097 7.03891 9.73893 6.98636 9.65484C6.95746 9.60754 6.89702 9.5471 6.84972 9.5182C6.76826 9.46827 6.7157 9.46564 5.79075 9.46564C4.94725 9.46564 4.80798 9.47353 4.73177 9.51031ZM6.19804 10.7138V11.1211H5.79075H5.38345V10.7138V10.3065H5.79075H6.19804V10.7138Z" fill="white"/>
<path d="M7.64818 9.51976C7.48526 9.61962 7.45898 9.70108 7.45898 10.0979C7.45898 10.4946 7.48526 10.5761 7.64818 10.676C7.72964 10.7259 7.78219 10.7285 8.72292 10.7285C9.70569 10.7285 9.71094 10.7285 9.79766 10.6681C9.96321 10.5577 9.99474 10.4684 9.99474 10.0979C9.99474 9.72735 9.96321 9.63801 9.79766 9.52765C9.68204 9.44881 9.45343 9.44356 9.32992 9.51976C9.22744 9.58283 9.14073 9.71684 9.14073 9.81407V9.88764H8.73343H8.32876L8.29986 9.78516C8.26832 9.66166 8.18949 9.55655 8.08964 9.50662C7.97927 9.44881 7.75329 9.4567 7.64818 9.51976Z" fill="white"/>
<path d="M10.6123 9.55238C10.41 9.65749 10.4021 9.69428 10.4021 10.4695V11.1474H10.1209C9.80033 11.1474 9.70836 11.1816 9.61376 11.3366C9.54281 11.4549 9.54281 11.6808 9.61376 11.7991C9.72149 11.9751 9.77142 11.9883 10.4021 11.9883C11.0327 11.9883 11.08 11.9751 11.1904 11.7991C11.2429 11.715 11.2429 11.673 11.2377 10.727C11.2298 9.61545 11.2351 9.65223 11.017 9.5445C10.8777 9.47618 10.7516 9.4788 10.6123 9.55238Z" fill="white"/>
<path d="M3.15719 9.88795C3.03895 9.91423 2.94698 9.97992 2.88654 10.0798C2.83661 10.1612 2.83398 10.2217 2.83398 11.4147C2.83398 12.5971 2.83661 12.6733 2.88654 12.8179C3.02318 13.2147 3.31223 13.5011 3.69851 13.6193C3.85354 13.6692 3.94814 13.6719 5.31456 13.6719C6.7125 13.6719 6.76506 13.6692 6.84915 13.6193C6.9779 13.5405 7.03834 13.4222 7.03834 13.2488C7.03834 13.0754 6.97265 12.9571 6.82812 12.873C6.73878 12.8205 6.68885 12.8179 5.34346 12.8047C4.28974 12.7942 3.93763 12.7837 3.89296 12.7574C3.86142 12.739 3.80099 12.6812 3.76157 12.6287L3.68799 12.5341L3.67486 11.3306C3.66172 10.1586 3.65909 10.1271 3.60654 10.0535C3.50405 9.91686 3.32274 9.85116 3.15719 9.88795Z" fill="white"/>
<path d="M12.2769 9.93983C12.0929 10.0502 12.1008 10.0055 12.0851 11.3325C12.0719 12.4756 12.0693 12.5334 12.0194 12.6201C11.9878 12.67 11.9248 12.7331 11.8748 12.7646C11.7855 12.8146 11.7303 12.8172 10.3718 12.8303C8.98961 12.8435 8.9607 12.8435 8.88713 12.8986C8.64538 13.08 8.65326 13.4426 8.90552 13.6134L8.99486 13.6738L10.5058 13.6659L12.0194 13.6581L12.2165 13.5635C12.5528 13.4005 12.7525 13.1798 12.8786 12.8277C12.9391 12.6595 12.9391 12.6516 12.9391 11.4245C12.9391 10.2263 12.9364 10.1868 12.8839 10.0975C12.7998 9.95297 12.6816 9.88728 12.5081 9.88728C12.4083 9.88728 12.3347 9.90304 12.2769 9.93983Z" fill="white"/>
<path d="M7.64818 11.2C7.52205 11.2788 7.45898 11.397 7.45898 11.5678C7.45898 11.7386 7.52205 11.8569 7.64818 11.9357C7.72701 11.983 7.78219 11.9883 8.30248 11.9883C8.84905 11.9883 8.8727 11.9857 8.95941 11.9278C9.05664 11.8648 9.167 11.673 9.167 11.5678C9.167 11.4627 9.05664 11.2709 8.95941 11.2078C8.8727 11.15 8.84905 11.1474 8.30248 11.1474C7.78219 11.1474 7.72701 11.1527 7.64818 11.2Z" fill="white"/>
</g>
</svg>
