<svg width="17" height="17" viewBox="0 0 17 17" fill="none" xmlns="http://www.w3.org/2000/svg">
<g opacity="0.4">
<path d="M2.46351 3.73521C2.26394 3.81391 2.05875 4.0191 1.98286 4.2243C1.93507 4.35078 1.92383 4.44635 1.92383 4.70214V5.02539H7.32068H12.7175V4.70214C12.7175 4.44635 12.7063 4.35078 12.6585 4.2243C12.5798 4.01629 12.3774 3.81391 12.1694 3.73521C12.012 3.67618 12.0092 3.67618 7.31224 3.67899C2.65746 3.67899 2.60968 3.67899 2.46351 3.73521Z" fill="white"/>
<path d="M13.6108 7.88871C13.6023 10.8879 13.5967 11.1549 13.5517 11.3067C13.3325 12.0488 12.7394 12.5575 11.9945 12.6447C11.8371 12.6615 10.1197 12.6728 7.31163 12.6728H2.87891L2.96323 12.8443C3.12345 13.1619 3.40173 13.398 3.74465 13.5132C3.91611 13.5723 3.94703 13.5723 8.66646 13.5723C13.2482 13.5723 13.4196 13.5695 13.5855 13.5189C13.9987 13.3896 14.35 13.0354 14.4709 12.6194C14.5102 12.4817 14.5159 12.0881 14.5159 9.06927C14.5159 5.71592 14.5159 5.67094 14.4568 5.49948C14.3416 5.15655 14.1055 4.87828 13.7878 4.72087L13.6192 4.63373L13.6108 7.88871Z" fill="white"/>
<path d="M1.92383 6.60078V7.27539H7.32068H12.7175V6.60078V5.92618H7.32068H1.92383V6.60078Z" fill="white"/>
<path d="M1.92383 9.62313C1.92383 11.0201 1.92664 11.0735 1.98286 11.2253C2.06156 11.4333 2.26394 11.6357 2.47195 11.7144C2.62935 11.7734 2.63216 11.7734 7.32068 11.7734C12.0092 11.7734 12.012 11.7734 12.1694 11.7144C12.3774 11.6357 12.5798 11.4333 12.6585 11.2253C12.7147 11.0735 12.7175 11.0201 12.7175 9.62313V8.17554H7.32068H1.92383V9.62313ZM10.6656 9.59783C10.9664 9.77492 10.9664 10.1741 10.6656 10.3511C10.5757 10.4045 10.5222 10.4102 10.0191 10.4102C9.51596 10.4102 9.46255 10.4045 9.3726 10.3511C9.01844 10.146 9.09433 9.65124 9.49347 9.55005C9.54126 9.5388 9.80548 9.53037 10.0753 9.53318C10.5138 9.5388 10.5785 9.54443 10.6656 9.59783Z" fill="white"/>
</g>
</svg>
