<svg width="15" height="15" viewBox="0 0 15 15" fill="none" xmlns="http://www.w3.org/2000/svg">
<g clip-path="url(#clip0_152_7844)">
<path d="M8.76237 8.50221C9.24913 8.50221 9.66288 8.33185 10.0036 7.99111C10.3443 7.65038 10.5147 7.23663 10.5147 6.74987C10.5147 6.26311 10.3443 5.84936 10.0036 5.50863C9.66288 5.16789 9.24913 4.99753 8.76237 4.99753C8.27561 4.99753 7.86186 5.16789 7.52113 5.50863C7.18039 5.84936 7.01003 6.26311 7.01003 6.74987C7.01003 7.23663 7.18039 7.65038 7.52113 7.99111C7.86186 8.33185 8.27561 8.50221 8.76237 8.50221ZM4.08945 10.5466C3.84851 10.5466 3.64224 10.4608 3.47066 10.2892C3.29907 10.1177 3.21328 9.91139 3.21328 9.67044V3.8293C3.21328 3.58835 3.29907 3.38208 3.47066 3.2105C3.64224 3.03892 3.84851 2.95312 4.08945 2.95312H13.4353C13.6762 2.95312 13.8825 3.03892 14.0541 3.2105C14.2257 3.38208 14.3115 3.58835 14.3115 3.8293V9.67044C14.3115 9.91139 14.2257 10.1177 14.0541 10.2892C13.8825 10.4608 13.6762 10.5466 13.4353 10.5466H4.08945ZM2.33711 12.299C2.09616 12.299 1.8899 12.2132 1.71831 12.0416C1.54673 11.87 1.46094 11.6637 1.46094 11.4228V5.14355C1.46094 5.01943 1.50316 4.91538 1.58762 4.83142C1.67208 4.74745 1.77673 4.70547 1.90158 4.70547C2.02643 4.70547 2.13024 4.74745 2.21299 4.83142C2.29573 4.91538 2.33711 5.01943 2.33711 5.14355V11.4228H12.121C12.2452 11.4228 12.3492 11.465 12.4332 11.5495C12.5171 11.6339 12.5591 11.7386 12.5591 11.8634C12.5591 11.9883 12.5171 12.0921 12.4332 12.1748C12.3492 12.2576 12.2452 12.299 12.121 12.299H2.33711ZM4.08945 5.28958C4.49833 5.28958 4.84393 5.14842 5.12626 4.8661C5.40858 4.58378 5.54974 4.23818 5.54974 3.8293H4.08945V5.28958ZM13.4353 5.28958V3.8293H11.975C11.975 4.23818 12.1162 4.58378 12.3985 4.8661C12.6808 5.14842 13.0264 5.28958 13.4353 5.28958ZM4.08945 9.67044H5.54974C5.54974 9.26156 5.40858 8.91596 5.12626 8.63364C4.84393 8.35132 4.49833 8.21016 4.08945 8.21016V9.67044ZM11.975 9.67044H13.4353V8.21016C13.0264 8.21016 12.6808 8.35132 12.3985 8.63364C12.1162 8.91596 11.975 9.26156 11.975 9.67044Z" fill="white"/>
</g>
<defs>
<clipPath id="clip0_152_7844">
<rect width="14.0188" height="14.0188" fill="white" transform="translate(0.876953 0.617188)"/>
</clipPath>
</defs>
</svg>
