<svg width="25" height="25" viewBox="0 0 25 25" fill="none" xmlns="http://www.w3.org/2000/svg">
<path d="M16.334 21.4004V19.4004C16.334 18.3395 15.9126 17.3221 15.1624 16.572C14.4123 15.8218 13.3949 15.4004 12.334 15.4004H6.33398C5.27312 15.4004 4.2557 15.8218 3.50556 16.572C2.75541 17.3221 2.33398 18.3395 2.33398 19.4004V21.4004" stroke="#558CFC" stroke-width="2" stroke-linecap="round" stroke-linejoin="round"/>
<path d="M16.334 3.5293C17.1917 3.75167 17.9514 4.25256 18.4937 4.95336C19.0359 5.65416 19.3302 6.51519 19.3302 7.4013C19.3302 8.28741 19.0359 9.14844 18.4937 9.84923C17.9514 10.55 17.1917 11.0509 16.334 11.2733" stroke="#558CFC" stroke-width="2" stroke-linecap="round" stroke-linejoin="round"/>
<path d="M22.334 21.4012V19.4012C22.3333 18.515 22.0383 17.654 21.4953 16.9536C20.9524 16.2531 20.1921 15.7528 19.334 15.5312" stroke="#558CFC" stroke-width="2" stroke-linecap="round" stroke-linejoin="round"/>
<path d="M9.33398 11.4004C11.5431 11.4004 13.334 9.60953 13.334 7.40039C13.334 5.19125 11.5431 3.40039 9.33398 3.40039C7.12485 3.40039 5.33398 5.19125 5.33398 7.40039C5.33398 9.60953 7.12485 11.4004 9.33398 11.4004Z" stroke="#558CFC" stroke-width="2" stroke-linecap="round" stroke-linejoin="round"/>
</svg>
