<svg width="16" height="17" viewBox="0 0 16 17" fill="none" xmlns="http://www.w3.org/2000/svg">
<path d="M9.22198 11.171C9.35967 11.2342 9.51479 11.2487 9.66178 11.2119C9.80877 11.1752 9.93887 11.0895 10.0307 10.969L10.2673 10.659C10.3915 10.4934 10.5526 10.359 10.7377 10.2664C10.9228 10.1738 11.127 10.1257 11.334 10.1257H13.334C13.6876 10.1257 14.0267 10.2661 14.2768 10.5162C14.5268 10.7662 14.6673 11.1054 14.6673 11.459V13.459C14.6673 13.8126 14.5268 14.1517 14.2768 14.4018C14.0267 14.6518 13.6876 14.7923 13.334 14.7923C10.1514 14.7923 7.09914 13.528 4.8487 11.2776C2.59827 9.02716 1.33398 5.97492 1.33398 2.79232C1.33398 2.4387 1.47446 2.09956 1.72451 1.84951C1.97456 1.59946 2.3137 1.45898 2.66732 1.45898H4.66732C5.02094 1.45898 5.36008 1.59946 5.61013 1.84951C5.86018 2.09956 6.00065 2.4387 6.00065 2.79232V4.79232C6.00065 4.99931 5.95246 5.20346 5.85989 5.3886C5.76732 5.57374 5.63291 5.73479 5.46732 5.85898L5.15532 6.09298C5.03293 6.18644 4.94666 6.31937 4.91118 6.46922C4.87569 6.61906 4.89317 6.77657 4.96065 6.91498C5.87177 8.76556 7.37027 10.2622 9.22198 11.171Z" stroke="#558CFC" stroke-width="1.33333" stroke-linecap="round" stroke-linejoin="round"/>
</svg>
