<svg width="36" height="36" viewBox="0 0 36 36" fill="none" xmlns="http://www.w3.org/2000/svg">
<g clip-path="url(#clip0_318_5516)">
<path d="M18.5275 0.0843754C18.4783 0.239063 18.1478 2.77031 18.1689 2.79844C18.183 2.8125 18.5205 2.88281 18.9213 2.95312C22.4228 3.58594 25.6432 5.28047 28.1885 7.81172C30.7127 10.3289 32.3228 13.2961 33.0822 16.8188C33.1807 17.2547 33.2299 17.3672 33.3283 17.3672C33.5041 17.3672 35.958 16.9383 35.9932 16.9031C36.0494 16.8469 35.7822 15.6094 35.508 14.6602C33.9963 9.39375 30.4596 4.97813 25.601 2.29219C23.801 1.29375 21.6072 0.513281 19.5682 0.140625C18.6892 -0.0210934 18.5697 -0.0281239 18.5275 0.0843754Z" fill="white"/>
<path d="M5.11914 3.57885C4.5707 3.79682 4.19805 4.12729 2.42617 5.92026C0.668359 7.69917 0.513672 7.89604 0.211328 8.78901C0.0144531 9.36557 -0.0628906 11.0531 0.0636719 11.9601C0.436328 14.5546 1.96914 18.1406 4.05039 21.3117C7.08789 25.9312 11.2855 29.9671 15.9262 32.7093C18.9707 34.5093 21.5934 35.5499 23.9418 35.9015C24.891 36.0421 26.5645 36.007 27.0918 35.8312C28.0762 35.5148 28.2801 35.3601 30.1152 33.539C31.0785 32.5898 31.9645 31.6546 32.091 31.4648C32.4356 30.9374 32.5762 30.4593 32.541 29.8617C32.4988 28.9265 32.4285 28.8351 29.5738 25.9664C27.2324 23.6179 27.0004 23.407 26.5434 23.189C26.1074 22.9851 25.9809 22.957 25.4535 22.957C24.9121 22.957 24.8066 22.9781 24.3637 23.196C23.9348 23.407 23.6535 23.6531 22.2473 25.0453C21.066 26.2195 20.5809 26.6484 20.4613 26.6484C20.3699 26.6484 19.9059 26.4445 19.4277 26.1914C17.5645 25.214 16.0316 24.0468 14.1613 22.1835C11.9043 19.9406 10.4066 17.9789 9.59805 16.207C9.46445 15.9046 9.35195 15.5812 9.35195 15.4828C9.35195 15.3421 9.68945 14.9554 10.927 13.7109C11.7918 12.839 12.5793 11.9953 12.6777 11.8406C13.1418 11.0882 13.184 10.2374 12.7902 9.42182C12.5934 9.01401 12.277 8.67651 10.027 6.42651C7.10195 3.50854 7.08086 3.49448 6.04727 3.45932C5.59023 3.45229 5.37227 3.48042 5.11914 3.57885Z" fill="white"/>
<path d="M17.9793 8.55C17.8739 9.30937 17.8106 9.95625 17.8387 9.98437C17.8668 10.0125 18.1129 10.0687 18.3731 10.118C19.3575 10.2867 20.6653 10.8211 21.6356 11.4398C23.7168 12.7547 25.3551 15.1102 25.8122 17.4305C25.8543 17.6695 25.9317 17.8594 25.9739 17.8594C26.0442 17.8594 28.702 17.4234 28.7372 17.4023C28.7864 17.3812 28.4418 16.0383 28.2239 15.4125C26.8809 11.475 23.5762 8.44453 19.5332 7.425C19.1747 7.33359 18.7176 7.23516 18.5278 7.20703L18.1762 7.16484L17.9793 8.55Z" fill="white"/>
</g>
<defs>
<clipPath id="clip0_318_5516">
<rect width="36" height="36" fill="white"/>
</clipPath>
</defs>
</svg>
