<svg width="16" height="16" viewBox="0 0 16 16" fill="none" xmlns="http://www.w3.org/2000/svg">
<path d="M10.6673 2C10.3137 2 9.97456 2.14048 9.72451 2.39052C9.47446 2.64057 9.33398 2.97971 9.33398 3.33333V7.33333C9.33398 7.68696 9.47446 8.02609 9.72451 8.27614C9.97456 8.52619 10.3137 8.66667 10.6673 8.66667C10.8441 8.66667 11.0137 8.7369 11.1387 8.86193C11.2637 8.98695 11.334 9.15652 11.334 9.33333V10C11.334 10.3536 11.1935 10.6928 10.9435 10.9428C10.6934 11.1929 10.3543 11.3333 10.0007 11.3333C9.82384 11.3333 9.65427 11.4036 9.52925 11.5286C9.40422 11.6536 9.33398 11.8232 9.33398 12V13.3333C9.33398 13.5101 9.40422 13.6797 9.52925 13.8047C9.65427 13.9298 9.82384 14 10.0007 14C11.0615 14 12.0789 13.5786 12.8291 12.8284C13.5792 12.0783 14.0007 11.0609 14.0007 10V3.33333C14.0007 2.97971 13.8602 2.64057 13.6101 2.39052C13.3601 2.14048 13.0209 2 12.6673 2H10.6673Z" stroke="white" stroke-width="1.33333" stroke-linecap="round" stroke-linejoin="round"/>
<path d="M3.33333 2C2.97971 2 2.64057 2.14048 2.39052 2.39052C2.14048 2.64057 2 2.97971 2 3.33333V7.33333C2 7.68696 2.14048 8.02609 2.39052 8.27614C2.64057 8.52619 2.97971 8.66667 3.33333 8.66667C3.51014 8.66667 3.67971 8.7369 3.80474 8.86193C3.92976 8.98695 4 9.15652 4 9.33333V10C4 10.3536 3.85952 10.6928 3.60948 10.9428C3.35943 11.1929 3.02029 11.3333 2.66667 11.3333C2.48986 11.3333 2.32029 11.4036 2.19526 11.5286C2.07024 11.6536 2 11.8232 2 12V13.3333C2 13.5101 2.07024 13.6797 2.19526 13.8047C2.32029 13.9298 2.48986 14 2.66667 14C3.72753 14 4.74495 13.5786 5.49509 12.8284C6.24524 12.0783 6.66667 11.0609 6.66667 10V3.33333C6.66667 2.97971 6.52619 2.64057 6.27614 2.39052C6.02609 2.14048 5.68696 2 5.33333 2H3.33333Z" stroke="white" stroke-width="1.33333" stroke-linecap="round" stroke-linejoin="round"/>
</svg>
