<svg width="26" height="26" viewBox="0 0 26 26" fill="none" xmlns="http://www.w3.org/2000/svg">
<path d="M10.334 3.28047C9.87187 3.34649 9.12031 3.53438 8.66836 3.68672C6.35781 4.49414 4.49414 6.35781 3.68672 8.66836C3.34141 9.67383 3.27539 10.0953 3.27539 11.375C3.27539 12.2992 3.2957 12.5988 3.37187 12.9492C3.91523 15.4578 5.39805 17.4281 7.61719 18.6063C9.45039 19.5711 11.832 19.7793 13.843 19.1445C14.5336 18.9262 15.468 18.459 16.0418 18.0527L16.5191 17.7125L18.9871 20.1754C20.343 21.5312 21.5059 22.6637 21.5668 22.6941C21.6277 22.7246 21.8004 22.75 21.9477 22.75C22.4402 22.75 22.75 22.4402 22.75 21.9477C22.75 21.8004 22.7246 21.6277 22.6941 21.5668C22.6637 21.5059 21.5312 20.343 20.1754 18.9871L17.7125 16.5191L18.0527 16.0418C18.459 15.468 18.9262 14.5336 19.1445 13.843C19.6422 12.2586 19.627 10.3695 19.0988 8.78516C18.3117 6.42891 16.4582 4.52969 14.1426 3.70703C13.1879 3.37188 12.7258 3.29063 11.5527 3.27539C10.9687 3.26524 10.4203 3.27031 10.334 3.28047ZM12.4922 5.00703C13.3961 5.16953 14.3508 5.56563 15.077 6.07852C15.5441 6.40859 16.2855 7.14492 16.6258 7.61211C17.418 8.71914 17.8242 9.98867 17.8242 11.375C17.8242 13.1676 17.1641 14.7266 15.8793 15.9809C15.3258 16.5191 14.8992 16.8289 14.2898 17.1387C13.3859 17.6008 12.4211 17.8293 11.375 17.8293C10.3289 17.8293 9.36406 17.6008 8.46016 17.1387C7.85078 16.8289 7.42422 16.5191 6.8707 15.9809C5.58594 14.7266 4.92578 13.1676 4.92578 11.375C4.92578 9.58242 5.58594 8.02344 6.8707 6.76914C7.41914 6.23594 7.85078 5.92109 8.45508 5.61133C9.69922 4.97656 11.1262 4.76328 12.4922 5.00703Z" fill="#171717"/>
</svg>
