<svg width="100" height="100" viewBox="0 0 100 100" fill="none" xmlns="http://www.w3.org/2000/svg">
<g clip-path="url(#clip0_208_2218)">
<path d="M47.0901 0.371094C44.7464 1.25 43.0471 2.79297 41.9339 5.05859C41.3479 6.28906 41.3089 6.48438 41.2503 9.02344L41.1721 11.7188H35.8206C29.551 11.7188 28.6135 11.8555 25.7815 13.2422C24.1799 14.0039 23.6526 14.3945 22.051 15.9961C20.4495 17.5977 20.0589 18.125 19.2971 19.7266C17.6565 23.0859 17.7542 21.3477 17.8128 47.4609L17.8714 70.6055L18.3987 72.0508C19.3167 74.5312 20.2346 75.9375 22.1487 77.832C23.5549 79.2383 24.2776 79.7656 25.5862 80.4297C28.4964 81.875 29.4924 82.0312 35.9378 82.0312H41.5628L42.1096 83.1445C42.7932 84.5703 44.4924 86.2695 45.9573 86.9727L47.0706 87.5195V92.832C47.0706 98.6914 47.0901 98.7891 48.3596 99.6289C49.1214 100.137 50.8792 100.137 51.6409 99.6289C52.9104 98.7891 52.93 98.6914 52.93 92.832V87.5195L54.0628 86.9727C55.4885 86.2695 57.2073 84.5898 57.8909 83.1641L58.4378 82.0312H64.0628C70.5081 82.0312 71.5042 81.875 74.4143 80.4297C75.762 79.7656 76.426 79.2578 77.93 77.7344C79.4534 76.2305 79.9612 75.5664 80.6253 74.2188C82.3245 70.8008 82.2268 72.4609 82.2268 46.9336C82.2268 21.5234 82.305 23.0273 80.7034 19.7266C79.9417 18.125 79.551 17.6172 77.9495 16.0156C76.426 14.4922 75.762 13.9844 74.4143 13.3203C71.5237 11.875 70.4885 11.7188 64.2385 11.7188H58.8284L58.7503 9.02344C58.6917 6.44531 58.6526 6.28906 58.0276 4.98047C57.1487 3.18359 55.6057 1.64062 53.8089 0.78125C52.5393 0.15625 52.2659 0.0976562 50.2932 0.0585938C48.5354 0 47.9495 0.0585938 47.0901 0.371094ZM51.4065 6.38672C52.4221 6.99219 52.7737 7.83203 52.8909 9.88281L52.9885 11.7188H50.0003H47.012L47.1096 9.88281C47.2268 7.85156 47.5393 7.10938 48.5549 6.42578C49.2776 5.95703 50.6253 5.9375 51.4065 6.38672ZM46.1917 24.4336C47.1487 24.7656 48.7893 25.4688 49.805 26.0352C54.9612 28.8086 56.2893 29.2969 58.8284 29.2969C60.7815 29.2969 62.1878 28.9062 64.8245 27.6172C66.7776 26.6406 67.1487 26.5234 67.9104 26.6211C69.1214 26.7578 70.0198 27.6562 70.3128 28.9844C70.469 29.6875 70.5081 35.7031 70.469 49.0234L70.4104 68.0664L69.9807 68.75C69.7464 69.1211 69.2581 69.6094 68.9065 69.8242C68.2815 70.2148 67.9104 70.2148 50.0003 70.2148C32.0901 70.2148 31.719 70.2148 31.094 69.8242C30.7424 69.6094 30.2542 69.1211 30.0198 68.75L29.5901 68.0664L29.5315 49.0234C29.4924 35.4102 29.5315 29.6875 29.6878 28.9648C29.9612 27.6758 30.9573 26.7383 33.262 25.6055C37.6956 23.457 42.051 23.0469 46.1917 24.4336Z" fill="currentColor" fill-opacity="0.11"/>
<path d="M38.5547 29.5898C38.0078 29.7461 37.0703 30.0781 36.4648 30.3516L35.3516 30.8398V47.6367V64.4531H50H64.6484V49.2188C64.6484 40.8398 64.6289 33.9844 64.5898 33.9844C64.5703 33.9844 63.6719 34.1992 62.5977 34.4727C58.3203 35.5664 54.2383 34.8828 49.707 32.3242C47.2266 30.918 45.1172 29.9414 43.8281 29.6094C42.3633 29.2383 39.9219 29.2188 38.5547 29.5898ZM51.3672 41.5039C52.3633 42.0117 52.7734 42.9883 52.8906 45.0195L52.9883 46.8164L54.7656 46.9141C55.8594 46.9727 56.7773 47.1289 57.168 47.3242C58.457 48.0078 59.0039 49.9219 58.2617 51.2109C57.6562 52.2266 56.8164 52.5781 54.7852 52.6953L52.9883 52.793L52.8906 54.5898C52.7734 56.6016 52.4414 57.4023 51.4453 58.0273C50.1758 58.8086 48.3594 58.3398 47.5781 57.0117C47.3047 56.5625 47.1875 55.8789 47.1094 54.5898L47.0117 52.793L45.2148 52.6953C43.2031 52.5781 42.4023 52.2461 41.7773 51.25C41.3281 50.5273 41.2891 49.2188 41.6992 48.4375C42.207 47.4414 43.1836 47.0312 45.2148 46.9141L47.0117 46.8164L47.1094 45.0391C47.2266 43.0078 47.5195 42.2461 48.4766 41.6211C49.2383 41.1328 50.5469 41.0742 51.3672 41.5039Z" fill="currentColor" fill-opacity="0.11"/>
</g>
<defs>
<clipPath id="clip0_208_2218">
<rect width="100" height="100" fill="white"/>
</clipPath>
</defs>
</svg>
