<svg width="100" height="100" viewBox="0 0 100 100" fill="none" xmlns="http://www.w3.org/2000/svg">
<path d="M25.7617 12.0311C23.0078 12.5194 19.6484 13.9647 16.7969 15.8788C15.0391 17.0506 11.6992 20.3514 10.6641 21.9334C9.60938 23.5741 8.49609 25.8397 7.92969 27.5975C6.99219 30.4881 6.75781 32.2264 6.75781 36.2303C6.75781 40.41 7.20703 43.6912 8.18359 46.5623L8.71094 48.1444L23.6523 48.1834L38.5742 48.242L41.6797 41.5428C43.3789 37.8709 44.9219 34.6873 45.0977 34.492C45.625 33.867 47.0117 33.3592 47.7148 33.4959C48.6133 33.6913 49.4531 34.2577 49.8438 34.9217C50.1172 35.3905 53.4766 48.5545 54.8047 54.3748C55.0586 55.4491 55.1562 55.6639 55.3516 55.4491C55.4883 55.2928 56.4063 53.8475 57.3828 52.2264C58.3594 50.6053 59.3359 49.1405 59.5508 48.9452C60.5078 48.0662 60.625 48.0662 76.2891 48.0467H91.1524L91.7774 46.328C92.9688 42.9881 93.2422 41.0741 93.2422 35.8397C93.2617 30.7811 93.1055 29.5506 92.0508 26.367C89.5117 18.8084 83.5938 13.9647 74.5508 12.0897C71.7383 11.5037 67.4023 11.6405 64.5508 12.3827C59.9805 13.5741 55.5664 15.8202 50.2734 19.6288C50.0977 19.7655 49.9023 19.7655 49.7266 19.6288C43.7891 15.3514 38.457 12.8319 33.6133 12.0311C31.3867 11.66 27.793 11.66 25.7617 12.0311Z" fill="currentColor" fill-opacity="0.11"/>
<path d="M45.7031 47.0898C43.3594 52.2852 42.8125 53.2617 42.0508 53.7305L41.3086 54.1992L26.5039 54.2969L11.6992 54.3945L13.4375 57.0312C20.332 67.5391 32.168 78.2031 46.582 86.8945L48.9258 88.3203L50.1953 88.2422C51.3672 88.1641 51.6406 88.0469 53.7305 86.7773C58.7305 83.7305 64.6094 79.5117 69.3555 75.5859C72.7344 72.7539 79.9805 65.4492 82.4219 62.4023C84.2188 60.1562 88.086 54.5703 88.086 54.2188C88.086 54.1602 82.4805 54.1016 75.6445 54.1211H63.1836L59.668 59.8828C57.7344 63.0469 55.9375 65.7812 55.6641 65.957C55.0195 66.3867 53.4766 66.5234 52.7344 66.2109C51.4258 65.6641 51.3672 65.4688 48.9453 55.625C47.6953 50.5469 46.6016 46.2305 46.5234 46.0156C46.4063 45.7227 46.2305 45.9375 45.7031 47.0898Z" fill="currentColor" fill-opacity="0.11"/>
</svg>
