<svg width="28" height="29" viewBox="0 0 28 29" fill="none" xmlns="http://www.w3.org/2000/svg">
<path d="M7 26.1668V5.16683C7 4.54799 7.24583 3.9545 7.68342 3.51691C8.121 3.07933 8.71449 2.8335 9.33333 2.8335H18.6667C19.2855 2.8335 19.879 3.07933 20.3166 3.51691C20.7542 3.9545 21 4.54799 21 5.16683V26.1668H7Z" stroke="#558CFC" stroke-width="1.8" stroke-linecap="round" stroke-linejoin="round"/>
<path d="M7.00065 14.5H4.66732C4.04848 14.5 3.45499 14.7458 3.0174 15.1834C2.57982 15.621 2.33398 16.2145 2.33398 16.8333V23.8333C2.33398 24.4522 2.57982 25.0457 3.0174 25.4832C3.45499 25.9208 4.04848 26.1667 4.66732 26.1667H7.00065" stroke="#558CFC" stroke-width="1.8" stroke-linecap="round" stroke-linejoin="round"/>
<path d="M21 11H23.3333C23.9522 11 24.5457 11.2458 24.9832 11.6834C25.4208 12.121 25.6667 12.7145 25.6667 13.3333V23.8333C25.6667 24.4522 25.4208 25.0457 24.9832 25.4832C24.5457 25.9208 23.9522 26.1667 23.3333 26.1667H21" stroke="#558CFC" stroke-width="1.8" stroke-linecap="round" stroke-linejoin="round"/>
<path d="M11.666 7.5H16.3327" stroke="#558CFC" stroke-width="1.8" stroke-linecap="round" stroke-linejoin="round"/>
<path d="M11.666 12.1665H16.3327" stroke="#558CFC" stroke-width="1.8" stroke-linecap="round" stroke-linejoin="round"/>
<path d="M11.666 16.8335H16.3327" stroke="#558CFC" stroke-width="1.8" stroke-linecap="round" stroke-linejoin="round"/>
<path d="M11.666 21.5H16.3327" stroke="#558CFC" stroke-width="1.8" stroke-linecap="round" stroke-linejoin="round"/>
</svg>
