<svg width="28" height="30" viewBox="0 0 28 30" fill="none" xmlns="http://www.w3.org/2000/svg">
<path d="M8.16667 20.196C10.7333 20.196 12.8333 17.9847 12.8333 15.3022C12.8333 13.9005 12.1683 12.5714 10.8383 11.4476C9.50833 10.3239 8.505 8.65638 8.16667 6.9043C7.82833 8.65638 6.83667 10.336 5.495 11.4476C4.15333 12.5593 3.5 13.9126 3.5 15.3022C3.5 17.9847 5.6 20.196 8.16667 20.196Z" stroke="#558CFC" stroke-width="2" stroke-linecap="round" stroke-linejoin="round"/>
<path d="M14.6538 8.47525C15.4562 7.14744 16.025 5.68284 16.3338 4.14941C16.9171 7.17025 18.6671 10.0702 21.0005 12.0036C23.3338 13.9369 24.5005 16.2327 24.5005 18.6494C24.5071 20.3197 24.0348 21.9544 23.1434 23.3463C22.252 24.7382 20.9816 25.8247 19.4933 26.4679C18.005 27.1112 16.3658 27.2822 14.7835 26.9595C13.2012 26.6367 11.7471 25.8346 10.6055 24.6548" stroke="#558CFC" stroke-width="2" stroke-linecap="round" stroke-linejoin="round"/>
</svg>
