<svg width="100" height="100" viewBox="0 0 100 100" fill="none" xmlns="http://www.w3.org/2000/svg">
<path d="M62.3497 11.9892C59.8922 12.3708 56.7784 13.424 54.7941 14.5383C52.0771 16.0647 51.3903 16.66 43.6209 24.3988C39.4386 28.5505 36.0195 32.0307 36.0195 32.1223C36.0195 32.1986 40.7208 36.9762 46.46 42.7154C53.3746 49.63 56.9768 53.1254 57.099 53.0491C57.2211 53.0033 57.8621 52.5759 58.5338 52.1027C60.8539 50.4847 63.7387 49.2636 67.0052 48.5004C69.0048 48.0425 74.164 47.9967 76.1635 48.4241C78.27 48.882 80.5901 49.7063 82.3302 50.5763L83.9481 51.4006L84.925 50.1642C87.2146 47.2183 88.5731 44.3029 89.4584 40.5174C89.8552 38.7621 90.0232 34.0761 89.7637 32.1681C88.5731 23.834 83.2918 16.8889 75.5835 13.5767C73.9808 12.8898 71.2944 12.1419 69.5543 11.9129C67.9058 11.6839 64.0135 11.7297 62.3497 11.9892ZM69.829 18.4916C72.7444 19.0564 75.7819 20.6286 77.9189 22.6587C78.7889 23.4829 79.0789 23.8798 79.2163 24.3682C79.4605 25.3146 79.1858 26.1541 78.3921 26.9478C77.3541 28.001 76.1025 28.0468 74.9119 27.0852C72.4239 25.0704 71.2638 24.3988 69.2948 23.8645C67.9363 23.4829 64.5783 23.4829 63.1892 23.8493C61.6629 24.2461 59.587 25.3451 58.259 26.4594C57.6027 27.0089 56.7937 27.5431 56.4731 27.6347C54.443 28.2453 52.4893 26.0473 53.3135 24.063C53.7562 23.025 56.1373 21.0865 58.3659 19.9722C61.9376 18.1558 65.7078 17.6674 69.829 18.4916Z" fill="currentColor" fill-opacity="0.11"/>
<path d="M24.4047 43.6006C16.2385 51.8126 15.7959 52.3316 14.1931 55.537C13.1552 57.5976 12.4378 59.8414 12.0409 62.131C11.7662 63.7642 11.7204 64.4206 11.7967 66.9239C11.9036 70.8314 12.4836 73.2889 14.0405 76.5554C17.9786 84.7521 26.1906 89.896 35.3641 89.896C41.027 89.896 45.7741 88.3086 50.0633 84.9963L51.4218 83.9431L50.5975 82.3098C49.6054 80.3103 48.949 78.4939 48.5064 76.418C48.2163 75.09 48.1705 74.3879 48.1705 71.732C48.1705 69.0761 48.2163 68.3739 48.5064 67.0612C49.1932 63.8711 50.3228 61.1999 52.1086 58.5287C52.6581 57.7045 53.116 56.9871 53.116 56.9413C53.116 56.7734 32.2808 36.0145 32.1282 36.0145C32.0366 36.0145 28.5565 39.4336 24.4047 43.6006Z" fill="currentColor" fill-opacity="0.11"/>
<path d="M67.1576 54.0104C62.4258 55.2773 58.3503 58.3606 55.9234 62.5124C53.6033 66.4657 52.8706 71.7318 54.0307 76.2194C55.496 81.9891 59.7699 86.7362 65.3717 88.8273C66.2265 89.1479 68.4398 89.7432 68.7908 89.7432C68.9587 89.7432 68.9893 86.6904 68.9893 71.7318V53.7204L68.5771 53.7357C68.3329 53.7357 67.7071 53.873 67.1576 54.0104Z" fill="currentColor" fill-opacity="0.11"/>
<path d="M74.4863 71.7318C74.4863 81.638 74.5169 89.7432 74.5474 89.7432C74.8985 89.7432 76.9438 89.2242 77.8444 88.9037C83.9499 86.7209 88.5749 81.2717 89.6739 74.9677C90.0097 73.0445 89.9639 69.9001 89.5823 68.0227C88.3917 62.1155 84.3773 57.2311 78.806 54.8805C77.646 54.3767 75.3258 53.7204 74.7611 53.7204C74.5016 53.7204 74.4863 54.4531 74.4863 71.7318Z" fill="currentColor" fill-opacity="0.11"/>
</svg>
