<svg width="27" height="27" viewBox="0 0 27 27" fill="none" xmlns="http://www.w3.org/2000/svg">
<path d="M11.8116 23.0626L23.0616 11.8126C23.5873 11.2975 24.0057 10.6832 24.2925 10.0053C24.5793 9.32748 24.7289 8.5995 24.7326 7.86348C24.7363 7.12745 24.5941 6.398 24.3141 5.71728C24.0342 5.03657 23.6221 4.4181 23.1016 3.89765C22.5812 3.3772 21.9627 2.96508 21.282 2.68513C20.6013 2.40518 19.8718 2.26296 19.1358 2.26667C18.3998 2.27039 17.6718 2.41998 16.9939 2.70679C16.3161 2.9936 15.7018 3.41194 15.1866 3.93763L3.93665 15.1876C3.41097 15.7028 2.99262 16.3171 2.70581 16.9949C2.419 17.6728 2.26941 18.4008 2.2657 19.1368C2.26198 19.8728 2.40421 20.6023 2.68416 21.283C2.9641 21.9637 3.37622 22.5821 3.89667 23.1026C4.41713 23.6231 5.03559 24.0352 5.71631 24.3151C6.39702 24.5951 7.12648 24.7373 7.8625 24.7336C8.59852 24.7299 9.32651 24.5803 10.0044 24.2935C10.6822 24.0067 11.2965 23.5883 11.8116 23.0626Z" stroke="#558CFC" stroke-width="2" stroke-linecap="round" stroke-linejoin="round"/>
<path d="M9.5625 9.5625L17.4375 17.4375" stroke="#558CFC" stroke-width="2" stroke-linecap="round" stroke-linejoin="round"/>
</svg>
