<svg width="100" height="100" viewBox="0 0 100 100" fill="none" xmlns="http://www.w3.org/2000/svg">
<path d="M35.4494 9.29668C23.8869 10.8592 14.2775 17.324 9.57048 26.699C7.69548 30.4686 6.85564 33.7889 6.69939 37.9881C6.5236 42.5389 7.2072 46.035 9.12126 50.3318L10.0002 52.3436L9.31657 55.0389C8.35954 58.8084 7.50017 61.0545 5.42985 65.1951C4.04314 67.9881 3.7111 68.8279 3.88689 69.0037C4.06267 69.16 5.03923 69.2381 7.28532 69.199C12.8127 69.1404 16.9533 68.3787 22.3244 66.367L24.4142 65.5857L25.4494 66.0154C28.0666 67.1482 31.2892 68.0857 34.5705 68.6912C37.3634 69.199 44.0431 69.1404 47.0705 68.5936C56.1525 66.9334 63.7697 62.4217 68.8283 55.7225C70.4299 53.5936 72.6564 49.16 73.3205 46.7772C75.4299 39.2381 74.4533 31.5232 70.6056 25.0389C68.4767 21.4647 65.2931 17.9881 61.9142 15.5662C58.3009 13.0076 52.9299 10.6639 48.5353 9.78497C44.3947 8.94512 39.3752 8.74981 35.4494 9.29668ZM43.3595 29.3943V34.7654H48.8283H54.297V39.0623V43.3592H48.8283H43.3595V48.8279V54.2967H39.0627H34.7658V48.8279V43.3592H29.3947H24.0236V39.0623V34.7654H29.3947H34.7658V29.3943V24.0232H39.0627H43.3595V29.3943Z" fill="currentColor" fill-opacity="0.11"/>
<path d="M75.1365 35.4881C75.4295 37.949 75.2732 42.3045 74.824 44.3943C72.8514 53.6912 66.7967 61.3474 57.8123 65.8982C53.2811 68.1834 48.6912 69.4724 43.4568 69.9217C38.4959 70.3513 32.2654 69.531 27.7537 67.8318C27.0701 67.5779 26.4647 67.4021 26.4256 67.4607C26.3865 67.4998 26.66 68.4763 27.0311 69.6287C30.7811 80.8201 41.6404 89.0037 54.9217 90.6248C57.4412 90.9373 63.7693 90.781 66.1131 90.3513C68.4764 89.9217 71.367 89.0623 73.7107 88.1248L75.6443 87.3435L77.285 88.0076C82.3045 90.0193 88.3201 91.1131 93.6326 90.9763C95.4686 90.9373 95.9959 90.8592 96.1522 90.6248C96.2889 90.3904 96.0545 89.824 95.2537 88.3787C93.242 84.7654 91.1522 79.2967 90.3123 75.449L89.9998 73.906L90.6248 72.656C93.5936 66.7771 94.1795 59.0818 92.1482 52.7537C90.0584 46.1912 85.8982 40.8006 79.8826 36.7966C78.2225 35.6834 76.0936 34.492 75.4295 34.2771C74.9803 34.1404 74.9803 34.1599 75.1365 35.4881Z" fill="currentColor" fill-opacity="0.11"/>
</svg>
