<svg width="100" height="100" viewBox="0 0 100 100" fill="none" xmlns="http://www.w3.org/2000/svg">
<path d="M38.6151 9.12156C37.7366 9.39186 36.9595 10 36.4864 10.7772L36.0303 11.5712L35.9796 19.2917L35.9289 27.0291L23.6133 27.0629L11.3145 27.1136L10.5711 27.6204C10.1826 27.9076 9.65886 28.482 9.42235 28.8875C9.03379 29.5801 9 29.8335 9 31.5905C9 33.3475 9.03379 33.6009 9.42235 34.2935C9.65886 34.699 10.1826 35.2734 10.5711 35.5606L11.3145 36.0674H50.4746H89.6348L90.3781 35.5606C90.7667 35.2734 91.2904 34.699 91.5269 34.2935C91.9154 33.6009 91.9492 33.3475 91.9492 31.5905C91.9492 29.8335 91.9154 29.5801 91.5269 28.8875C91.2904 28.482 90.7667 27.9076 90.3781 27.6204L89.6348 27.1136L77.336 27.0629L65.0203 27.0291L64.9696 19.2917C64.9189 10.8447 64.9527 11.1488 63.8884 10.0676C62.7903 8.98641 63.5505 9.03709 50.728 9.0033C44.3252 8.98641 38.8685 9.03709 38.6151 9.12156ZM51.7079 15.2034C52.1471 15.7102 52.164 15.7609 52.164 17.805V19.8999L54.3771 19.9675L56.5902 20.0181L57.0801 20.5756C57.9755 21.5724 57.5701 22.9408 56.2523 23.3125C55.9145 23.3969 54.8501 23.4814 53.9041 23.4814H52.164V25.61C52.164 27.7218 52.164 27.7387 51.6741 28.2286C51.2855 28.6172 51.0321 28.7185 50.4746 28.7185C49.9171 28.7185 49.6637 28.6172 49.2751 28.2286C48.7852 27.7387 48.7852 27.7218 48.7852 25.61V23.4814H47.062C46.0991 23.4814 45.0348 23.3969 44.6969 23.3125C43.3792 22.9408 42.9737 21.5724 43.8691 20.5756L44.359 20.0181L46.5721 19.9675L48.7852 19.8999V17.8388C48.7852 15.9636 48.819 15.7102 49.14 15.3047C49.8664 14.3925 50.9139 14.3418 51.7079 15.2034Z" fill="currentColor" fill-opacity="0.11"/>
<path d="M12.6328 59.55V79.4004H21.6711H30.7093V63.9424C30.7093 50.4442 30.7431 48.4 30.9627 47.9777C31.5202 46.9134 30.4221 46.964 50.4752 46.964C70.5283 46.964 69.4302 46.9134 69.9877 47.9777C70.2073 48.4 70.2411 50.4442 70.2411 63.9424V79.4004H79.2794H88.3176V59.55V39.6996H50.4752H12.6328V59.55Z" fill="currentColor" fill-opacity="0.11"/>
<path d="M34.2578 64.9561V79.4004H41.5222H48.7866V64.9561V50.5118H41.5222H34.2578V64.9561Z" fill="currentColor" fill-opacity="0.11"/>
<path d="M52.1641 64.9561V79.4004H59.4285H66.6928V64.9561V50.5118H59.4285H52.1641V64.9561Z" fill="currentColor" fill-opacity="0.11"/>
<path d="M9.48992 83.4718C9 83.9786 9 83.9955 9 85.9552C9 87.6108 9.06758 88.0669 9.37167 88.7258C9.87848 89.8408 10.9935 90.9727 12.1085 91.5133L13.0545 91.9863H50.4746H87.8947L88.6887 91.6147C89.8037 91.1078 90.9356 89.9928 91.4762 88.8778C91.9154 88.0163 91.9492 87.7797 91.9492 85.9552C91.9492 84.0124 91.9492 83.9786 91.4593 83.4718L90.9525 82.9481H50.4746H9.99674L9.48992 83.4718Z" fill="currentColor" fill-opacity="0.11"/>
</svg>
