<svg width="99" height="99" viewBox="0 0 99 99" fill="none" xmlns="http://www.w3.org/2000/svg">
<path d="M21.235 10.2431C19.7409 10.7823 18.601 11.9068 17.9849 13.4165C17.6306 14.2638 17.6152 14.4486 17.6152 18.6696C17.6152 23.4297 17.6614 23.7994 18.4624 25.078C19.325 26.449 20.434 27.1731 22.0975 27.4657C22.7753 27.589 26.5798 27.6198 34.2506 27.589L45.4178 27.5428L46.3728 27.096C47.6205 26.526 48.7295 25.3707 49.1608 24.1845C49.4842 23.3526 49.4996 23.0291 49.4996 18.762C49.4996 14.4949 49.4842 14.1714 49.1608 13.3395C48.7141 12.1225 47.4356 10.8439 46.2188 10.3972C45.3408 10.0583 45.2638 10.0583 33.5112 10.0737C25.4246 10.0737 21.5584 10.1353 21.235 10.2431Z" fill="currentColor" fill-opacity="0.11"/>
<path d="M20.4953 32.5186C20.1411 32.8883 18.955 33.7972 17.846 34.552C14.827 36.6162 13.1635 38.3878 11.9004 40.8988C11.0378 42.5933 10.7144 43.533 10.3755 45.1659C10.0829 46.5524 10.0674 47.3072 10.0674 64.9612C10.0674 85.4805 9.99043 83.9708 11.1611 85.7269C12.1161 87.1288 13.5485 88.1147 15.4431 88.6847C16.1979 88.9003 18.1233 88.9312 33.6188 88.9312C50.2233 88.9312 51.0089 88.9157 51.9331 88.6385C54.2281 87.9298 55.8301 86.4972 56.7696 84.2789L57.1239 83.4624L57.1701 66.209C57.2009 55.7799 57.1547 48.2469 57.0623 47.184C56.6002 41.8693 53.9971 37.6022 49.3453 34.5674C48.375 33.9358 47.2197 33.0885 46.7884 32.6726L46.0029 31.9332L33.5726 31.887L21.1423 31.8561L20.4953 32.5186ZM46.6806 50.6039C46.9425 50.7579 47.3275 51.0968 47.5278 51.3741L47.8821 51.8825V64.6685V77.4545L47.5278 77.9629C46.7422 79.0566 47.6048 78.995 33.5572 78.995C21.6814 78.995 20.8958 78.9796 20.4183 78.7177C20.1411 78.5637 19.7714 78.2248 19.6174 77.9475C19.3247 77.4699 19.3093 77.0848 19.3093 64.6993C19.3093 51.2201 19.2939 51.4665 19.987 50.8966C20.7264 50.2804 20.9266 50.2804 33.7882 50.3112C45.2327 50.342 46.2185 50.3574 46.6806 50.6039Z" fill="currentColor" fill-opacity="0.11"/>
<path d="M23.623 64.6684V74.6045H33.558H43.493V64.6684V54.7322H33.558H23.623V64.6684Z" fill="currentColor" fill-opacity="0.11"/>
<path d="M62.2086 53.4074C61.4384 53.7463 60.9301 54.4704 60.8223 55.3792C60.7761 55.826 60.7453 62.3268 60.7761 69.829C60.8223 82.7075 60.8531 83.5085 61.1149 84.2171C61.8697 86.1736 63.0095 87.4676 64.7501 88.2994L65.9053 88.854L74.531 88.9002C80.8925 88.931 83.3416 88.9002 83.8499 88.7616C86.1758 88.1454 88.0087 86.3584 88.7019 84.0477C88.8713 83.4931 88.9329 82.4148 88.9329 79.6419V75.9909H84.2042C79.9991 75.9909 79.3984 75.9601 78.9209 75.7137C77.4114 74.9588 77.2574 72.9408 78.6437 71.9549C79.152 71.6006 79.1982 71.6006 84.0501 71.5543L88.9329 71.5081V69.2128V66.9175L84.0501 66.8713C79.1982 66.8251 79.152 66.8251 78.6437 66.4707C77.2574 65.4848 77.4114 63.4668 78.9209 62.712C79.3984 62.4655 79.9991 62.4347 84.2042 62.4347H88.9329V58.5989C88.9329 54.8863 88.9175 54.763 88.5787 54.2547C87.8393 53.1301 88.5787 53.1917 74.9161 53.1917C65.0889 53.2072 62.5782 53.238 62.2086 53.4074Z" fill="currentColor" fill-opacity="0.11"/>
</svg>
