<svg width="100" height="100" viewBox="0 0 100 100" fill="none" xmlns="http://www.w3.org/2000/svg">
<path d="M32.3281 12.0035C31.341 12.6615 31.341 12.6764 31.341 17.6559V22.1868H30.9372C29.9202 22.1868 29.0977 23.2036 29.0977 24.4298C29.0977 25.3569 29.3968 25.9252 30.0847 26.3887C30.5035 26.6579 31.1316 26.6729 48.5402 26.6729C65.9488 26.6729 66.577 26.6579 66.9957 26.3887C67.6837 25.9252 67.9828 25.3569 67.9828 24.4298C67.9828 23.2036 67.1602 22.1868 66.1582 22.1868H65.7394V17.6559C65.7394 12.6764 65.7394 12.6615 64.7523 12.0035C64.3336 11.7343 63.7503 11.7194 48.5402 11.7194C33.3302 11.7194 32.7469 11.7343 32.3281 12.0035Z" fill="currentColor" fill-opacity="0.11"/>
<path d="M31.5663 31.2483C28.964 31.8165 27.0796 32.8483 25.3596 34.7025C23.8341 36.3175 22.8471 38.2913 22.4582 40.4596L22.3535 41.0278H48.5412H74.7288L74.6241 40.4596C73.8913 36.3474 71.0647 33.0726 66.9368 31.5922L65.9647 31.2333L48.9151 31.2184C39.5378 31.2034 31.7308 31.2184 31.5663 31.2483Z" fill="currentColor" fill-opacity="0.11"/>
<path d="M29.6354 45.6335C29.7101 45.7082 30.2336 46.1269 30.8019 46.5606C32.5667 47.9363 34.1819 50.2242 34.9746 52.4672C35.7523 54.6953 35.7523 54.6803 35.7523 68.0936C35.7523 78.1423 35.7074 80.7891 35.5429 81.6265C35.1241 83.7648 34.1969 85.8284 32.9855 87.3686C32.6564 87.7873 32.3872 88.1611 32.3872 88.206C32.3872 88.2509 38.6836 88.2808 46.3859 88.2808H60.3995L59.0983 86.9349C55.6585 83.376 53.9236 79.0545 53.9236 74.075C53.9236 68.931 55.7034 64.6393 59.3675 60.9757C63.0766 57.2673 67.339 55.5177 72.6633 55.5177H74.7122V50.5233V45.5139H52.099C39.6558 45.5139 29.5456 45.5737 29.6354 45.6335ZM49.6163 53.3943C50.394 53.8579 50.6633 54.5009 50.753 56.056L50.8278 57.4318L52.2037 57.5065C53.2656 57.5663 53.7142 57.6561 54.0881 57.8953C55.479 58.7477 55.479 60.6916 54.0881 61.544C53.7142 61.7832 53.2656 61.8729 52.2037 61.9328L50.8278 62.0075L50.753 63.3832C50.6633 64.9235 50.409 65.5365 49.6463 66.0151C48.6741 66.6132 47.2832 66.2543 46.685 65.2375C46.4756 64.8935 46.3859 64.3702 46.3261 63.3832L46.2513 62.0075L44.8753 61.9328C43.3349 61.843 42.7217 61.5888 42.2431 60.8262C41.8991 60.2729 41.8692 59.271 42.1833 58.6729C42.5721 57.9103 43.3199 57.5963 44.8753 57.5065L46.2513 57.4318L46.3261 56.071C46.4158 54.5158 46.6401 53.9327 47.373 53.4541C47.9862 53.0654 49.0032 53.0504 49.6163 53.3943Z" fill="currentColor" fill-opacity="0.11"/>
<path d="M20.02 48.1307C16.969 48.9532 14.4115 51.5401 13.6189 54.5906C13.4394 55.2635 13.3945 56.5346 13.3945 60.6468V65.8506H22.368H31.3415V60.6468C31.3415 56.5196 31.2967 55.2635 31.1172 54.5906C30.3096 51.4803 27.7671 48.9532 24.6563 48.1457C23.5346 47.8466 21.0818 47.8466 20.02 48.1307Z" fill="currentColor" fill-opacity="0.11"/>
<path d="M69.4182 60.1087C64.3332 61.2003 60.1605 65.1481 58.6799 70.2621C58.3808 71.3089 58.3359 71.7874 58.3359 74.0753C58.3359 76.8118 58.4107 77.2604 59.1884 79.309C59.5025 80.1464 60.7887 82.4492 60.9532 82.4492C60.9981 82.4492 65.4998 77.9781 70.9736 72.5052C80.4407 63.0396 80.9043 62.5611 80.6201 62.3368C79.4685 61.4546 77.1504 60.4676 75.4155 60.1087C73.9797 59.8097 70.8241 59.8097 69.4182 60.1087Z" fill="currentColor" fill-opacity="0.11"/>
<path d="M73.9647 75.6451C68.5059 81.1032 64.064 85.6042 64.0939 85.6341C64.4379 85.9481 66.1129 86.8901 66.9206 87.2191C68.9396 88.0565 69.7921 88.2061 72.5439 88.2061C74.7574 88.2061 75.236 88.1612 76.2829 87.8621C81.0837 86.4715 84.8975 82.6583 86.2584 77.8882C86.5576 76.8414 86.6024 76.348 86.6024 74.075C86.6024 71.2937 86.5276 70.8451 85.6901 68.6918C85.2714 67.66 84.1945 65.7011 84.0151 65.7011C83.9552 65.7011 79.4386 70.1722 73.9647 75.6451Z" fill="currentColor" fill-opacity="0.11"/>
<path d="M13.3945 75.5404C13.3945 79.6526 13.4394 80.9236 13.6189 81.5965C14.4265 84.6919 16.9839 87.249 20.0798 88.0564C21.1716 88.3406 23.5645 88.3406 24.6563 88.0564C27.7521 87.249 30.3096 84.6919 31.1172 81.5965C31.2967 80.9236 31.3415 79.6676 31.3415 75.5404V70.3366H22.368H13.3945V75.5404Z" fill="currentColor" fill-opacity="0.11"/>
</svg>
