<svg width="28" height="30" viewBox="0 0 28 30" fill="none" xmlns="http://www.w3.org/2000/svg">
<path d="M12.834 2.9165V5.33317" stroke="#558CFC" stroke-width="2" stroke-linecap="round" stroke-linejoin="round"/>
<path d="M5.83398 2.9165V5.33317" stroke="#558CFC" stroke-width="2" stroke-linecap="round" stroke-linejoin="round"/>
<path d="M5.83398 4.125H4.66732C4.04848 4.125 3.45499 4.37961 3.0174 4.83283C2.57982 5.28604 2.33398 5.90073 2.33398 6.54167V11.375C2.33398 13.2978 3.07148 15.1419 4.38424 16.5015C5.69699 17.8612 7.47747 18.625 9.33398 18.625C11.1905 18.625 12.971 17.8612 14.2837 16.5015C15.5965 15.1419 16.334 13.2978 16.334 11.375V6.54167C16.334 5.90073 16.0882 5.28604 15.6506 4.83283C15.213 4.37961 14.6195 4.125 14.0007 4.125H12.834" stroke="#558CFC" stroke-width="2" stroke-linecap="round" stroke-linejoin="round"/>
<path d="M9.33398 18.625C9.33398 20.5478 10.0715 22.3919 11.3842 23.7515C12.697 25.1112 14.4775 25.875 16.334 25.875C18.1905 25.875 19.971 25.1112 21.2837 23.7515C22.5965 22.3919 23.334 20.5478 23.334 18.625V15" stroke="#558CFC" stroke-width="2" stroke-linecap="round" stroke-linejoin="round"/>
<path d="M23.3333 14.9998C24.622 14.9998 25.6667 13.9179 25.6667 12.5832C25.6667 11.2485 24.622 10.1665 23.3333 10.1665C22.0447 10.1665 21 11.2485 21 12.5832C21 13.9179 22.0447 14.9998 23.3333 14.9998Z" stroke="#558CFC" stroke-width="2" stroke-linecap="round" stroke-linejoin="round"/>
</svg>
