<svg width="28" height="29" viewBox="0 0 28 29" fill="none" xmlns="http://www.w3.org/2000/svg">
<path d="M18.5 13.0625L20.8125 15.4375L25.4375 10.6875" stroke="white" stroke-width="1.99998" stroke-linecap="round" stroke-linejoin="round"/>
<path d="M18.502 24.9375V22.5625C18.502 21.3027 18.0147 20.0945 17.1473 19.2037C16.28 18.3129 15.1036 17.8125 13.877 17.8125H6.93945C5.71283 17.8125 4.53644 18.3129 3.66908 19.2037C2.80173 20.0945 2.31445 21.3027 2.31445 22.5625V24.9375" stroke="white" stroke-width="1.99998" stroke-linecap="round" stroke-linejoin="round"/>
<path d="M10.4063 13.0625C12.9606 13.0625 15.0313 10.9359 15.0313 8.3125C15.0313 5.68915 12.9606 3.5625 10.4063 3.5625C7.85193 3.5625 5.78125 5.68915 5.78125 8.3125C5.78125 10.9359 7.85193 13.0625 10.4063 13.0625Z" stroke="white" stroke-width="1.99998" stroke-linecap="round" stroke-linejoin="round"/>
</svg>
