<svg width="100" height="100" viewBox="0 0 100 100" fill="none" xmlns="http://www.w3.org/2000/svg">
<path d="M47.4129 9.16403C42.2155 9.81146 37.036 12.8508 33.8169 17.113C32.3961 18.9834 30.9035 22.0766 30.31 24.3606C29.7345 26.5367 29.5367 30.3314 29.8604 32.7592C31.2631 43.244 38.187 53.9985 45.4346 56.9299C47.4848 57.7572 48.5459 57.937 50.8299 57.8291C54.0131 57.7032 56.5848 56.5882 59.5162 54.0884C64.3539 49.97 68.5802 42.4347 70.1988 35.0252C70.5405 33.4426 70.5944 32.6153 70.5944 29.648C70.6124 25.7814 70.4146 24.6843 69.2636 21.7889C65.8286 13.1745 56.8546 7.99506 47.4129 9.16403Z" fill="currentColor" fill-opacity="0.11"/>
<path d="M32.3958 55.0056C25.2201 56.5522 19.0156 61.264 15.7065 67.7383C14.5376 70.0043 13.6204 72.7199 13.2427 75.1118C12.8471 77.4318 12.955 82.0177 13.4225 83.6903C14.7893 88.564 18.2063 90.9019 25.2022 91.7112C28.2235 92.0709 72.1767 92.0709 75.198 91.7112C82.1939 90.9019 85.6109 88.564 86.9777 83.6903C87.4453 82.0177 87.5532 77.4318 87.1575 75.1118C86.564 71.4611 84.8735 67.4326 82.6974 64.4652C80.5753 61.5698 77.1583 58.6923 73.9392 57.0737C71.5293 55.8688 67.339 54.6459 65.5765 54.6459C65.055 54.6459 64.9831 54.7178 64.8752 55.2573C64.5694 56.8579 61.3143 60.6706 56.9981 64.4652C54.4983 66.6593 50.4339 69.9324 50.2001 69.9324C49.9663 69.9324 45.9019 66.6593 43.4021 64.4652C39.0859 60.6706 35.8308 56.8579 35.525 55.2573C35.4171 54.6819 35.3812 54.6459 34.6618 54.6639C34.2662 54.6639 33.2411 54.8257 32.3958 55.0056ZM71.0617 70.4C71.1696 70.6518 71.2415 71.6948 71.2415 72.7379V74.6083H73.2378C74.3348 74.6083 75.3779 74.6982 75.5757 74.7881C75.8814 74.968 75.9174 75.1838 75.9174 77.1261C75.9174 79.8956 75.9893 79.8237 73.2917 79.8237H71.2415V81.694C71.2415 82.7371 71.1696 83.7802 71.0617 84.032C70.8819 84.4996 70.8819 84.4996 68.6518 84.4996C66.6016 84.4996 66.3858 84.4636 66.206 84.1579C66.1161 83.96 66.0261 82.917 66.0261 81.8199V79.8237H64.0299C62.9329 79.8237 61.8898 79.7338 61.692 79.6438C61.3862 79.464 61.3503 79.2482 61.3503 77.216C61.3503 75.1838 61.3862 74.968 61.692 74.7881C61.8898 74.6982 62.9329 74.6083 64.0299 74.6083H66.0261V72.612C66.0261 71.515 66.1161 70.4719 66.206 70.2741C66.3858 69.9684 66.6016 69.9324 68.6518 69.9324C70.8819 69.9324 70.8819 69.9324 71.0617 70.4Z" fill="currentColor" fill-opacity="0.11"/>
</svg>
