<svg width="40" height="40" viewBox="0 0 40 40" fill="none" xmlns="http://www.w3.org/2000/svg">
<path d="M33.3327 21.6671C33.3327 30.0004 27.4993 34.1671 20.566 36.5838C20.203 36.7068 19.8086 36.7009 19.4493 36.5671C12.4993 34.1671 6.66602 30.0004 6.66602 21.6671V10.0004C6.66602 9.5584 6.84161 9.13447 7.15417 8.82191C7.46673 8.50935 7.89065 8.33376 8.33268 8.33376C11.666 8.33376 15.8327 6.33376 18.7327 3.80042C19.0858 3.49875 19.5349 3.33301 19.9993 3.33301C20.4638 3.33301 20.9129 3.49875 21.266 3.80042C24.1827 6.35042 28.3327 8.33376 31.666 8.33376C32.108 8.33376 32.532 8.50935 32.8445 8.82191C33.1571 9.13447 33.3327 9.5584 33.3327 10.0004V21.6671Z" stroke="white" stroke-width="3.33333" stroke-linecap="round" stroke-linejoin="round"/>
</svg>
