<svg width="41" height="41" viewBox="0 0 41 41" fill="none" xmlns="http://www.w3.org/2000/svg">
<path d="M33.9225 22.1671C33.9225 30.5004 28.0892 34.6671 21.1559 37.0838C20.7928 37.2068 20.3984 37.2009 20.0392 37.0671C13.0892 34.6671 7.25586 30.5004 7.25586 22.1671V10.5004C7.25586 10.0584 7.43145 9.63447 7.74402 9.32191C8.05658 9.00935 8.4805 8.83376 8.92253 8.83376C12.2559 8.83376 16.4225 6.83376 19.3225 4.30042C19.6756 3.99875 20.1248 3.83301 20.5892 3.83301C21.0536 3.83301 21.5028 3.99875 21.8559 4.30042C24.7725 6.85042 28.9225 8.83376 32.2559 8.83376C32.6979 8.83376 33.1218 9.00935 33.4344 9.32191C33.7469 9.63447 33.9225 10.0584 33.9225 10.5004V22.1671Z" stroke="#558CFC" stroke-width="3.33333" stroke-linecap="round" stroke-linejoin="round"/>
</svg>
