<svg width="26" height="27" viewBox="0 0 26 27" fill="none" xmlns="http://www.w3.org/2000/svg">
<path fill-rule="evenodd" clip-rule="evenodd" d="M12.9998 3.66992C14.0103 3.66992 15.0467 3.69592 16.0513 3.73847L17.2378 3.79519L18.3736 3.86256L19.4372 3.93465L20.4086 4.01029C21.4629 4.09098 22.4549 4.54086 23.2102 5.28079C23.9654 6.02071 24.4356 7.00329 24.5379 8.05565L24.5852 8.55792L24.6738 9.63338C24.7566 10.7478 24.818 11.9627 24.818 13.1245C24.818 14.2862 24.7566 15.5011 24.6738 16.6156L24.5852 17.691C24.5698 17.8636 24.5545 18.0302 24.5379 18.1933C24.4356 19.2458 23.9652 20.2286 23.2097 20.9685C22.4542 21.7085 21.4619 22.1582 20.4075 22.2386L19.4384 22.3131L18.3747 22.3864L17.2378 22.4537L16.0513 22.5105C15.0347 22.5546 14.0173 22.5775 12.9998 22.579C11.9823 22.5775 10.9649 22.5546 9.94837 22.5105L8.76182 22.4537L7.6261 22.3864L6.56246 22.3131L5.591 22.2386C4.53676 22.158 3.54475 21.7081 2.78947 20.9681C2.0342 20.2282 1.56405 19.2456 1.46173 18.1933L1.41446 17.691L1.32582 16.6156C1.23546 15.454 1.18737 14.2895 1.18164 13.1245C1.18164 11.9627 1.2431 10.7478 1.32582 9.63338L1.41446 8.55792C1.42982 8.38538 1.44519 8.21874 1.46173 8.05565C1.56401 7.00347 2.03399 6.02105 2.78902 5.28115C3.54406 4.54124 4.53579 4.09124 5.58982 4.01029L6.5601 3.93465L7.62373 3.86256L8.76064 3.79519L9.94719 3.73847C10.9641 3.69431 11.9819 3.67145 12.9998 3.66992ZM10.6362 10.2586V15.9904C10.6362 16.5364 11.2271 16.8767 11.6998 16.6049L16.6635 13.739C16.7715 13.6768 16.8612 13.5873 16.9236 13.4794C16.9859 13.3715 17.0188 13.2491 17.0188 13.1245C17.0188 12.9998 16.9859 12.8774 16.9236 12.7695C16.8612 12.6616 16.7715 12.5721 16.6635 12.5099L11.6998 9.64519C11.592 9.58294 11.4697 9.55017 11.3452 9.55019C11.2207 9.55021 11.0983 9.58302 10.9905 9.64531C10.8827 9.7076 10.7932 9.79718 10.731 9.90504C10.6688 10.0129 10.6361 10.1352 10.6362 10.2597" fill="white"/>
</svg>
