<svg width="27" height="27" viewBox="0 0 27 27" fill="none" xmlns="http://www.w3.org/2000/svg">
<path d="M3.11328 13.1246C3.11328 7.25039 7.87536 2.48828 13.7496 2.48828C19.6239 2.48828 24.386 7.25039 24.386 13.1246C24.386 18.999 19.6239 23.761 13.7496 23.761C7.87536 23.761 3.11328 18.999 3.11328 13.1246Z" fill="white"/>
<path fill-rule="evenodd" clip-rule="evenodd" d="M13.4308 2.48828C13.3771 6.80018 13.0828 9.22357 11.4657 10.8408C9.84862 12.458 7.42511 12.7524 3.11328 12.8059V13.4434C7.42511 13.4969 9.84862 13.7914 11.4657 15.4085C13.0828 17.0257 13.3771 19.4492 13.4308 23.761H14.0685C14.1218 19.4492 14.4164 17.0257 16.0335 15.4085C17.6505 13.7912 20.0742 13.4969 24.386 13.4434V12.8059C20.0742 12.7524 17.6505 12.458 16.0335 10.8408C14.416 9.22357 14.1218 6.80018 14.0685 2.48828H13.4308Z" fill="#071D26"/>
</svg>
