<svg width="22" height="23" viewBox="0 0 22 23" fill="none" xmlns="http://www.w3.org/2000/svg">
<g clip-path="url(#clip0_152_7898)">
<path d="M9.94765 0.193749C7.82499 0.571875 6.06327 2.08867 5.44022 4.06953C5.1953 4.85156 5.13085 5.80977 5.26835 6.61328C5.66796 8.93359 7.56288 10.7727 9.98632 11.1895C10.4848 11.2754 11.516 11.2754 12.0144 11.1895C14.1629 10.8199 15.9332 9.30742 16.5605 7.30508C16.7582 6.67773 16.8141 6.23945 16.7883 5.49609C16.7625 4.76992 16.6723 4.32734 16.4187 3.66562C15.7398 1.90391 13.9996 0.533203 12.0144 0.189453C11.5332 0.107812 10.4203 0.107812 9.94765 0.193749ZM11.7223 3.06406C12.3152 3.22305 12.9211 3.62695 13.2648 4.09102C13.6344 4.58945 13.8062 5.09648 13.8105 5.68945C13.8105 6.13203 13.7418 6.41992 13.5226 6.8668C13.2648 7.39531 12.8394 7.8207 12.2894 8.08711C11.4 8.52109 10.6008 8.52109 9.71132 8.08711C8.92499 7.70469 8.37499 6.98711 8.2246 6.14062C8.12147 5.56484 8.19023 5.10508 8.47382 4.51211C8.72304 3.99219 9.15702 3.5625 9.71132 3.2918C9.93476 3.18008 10.257 3.06406 10.4203 3.02539C10.7683 2.95234 11.3699 2.96953 11.7223 3.06406Z" fill="white"/>
<path d="M5.22072 11.2068C4.59338 11.3701 4.16369 11.9158 4.13361 12.5904C4.12072 12.8697 4.12931 12.9427 4.22384 13.1275C4.4172 13.5013 4.96291 13.9611 5.84806 14.4853C6.64299 14.9622 7.7172 15.3189 8.93752 15.5079C9.25549 15.5595 9.58634 15.6154 9.67228 15.6283L9.82697 15.6583L7.61838 17.7853C5.13478 20.1701 5.18205 20.1185 5.17775 20.6642C5.17775 21.0681 5.31525 21.3775 5.62463 21.6654C6.18752 22.1896 6.98244 22.2798 7.49377 21.8716C7.5797 21.8029 8.40041 21.0208 9.32424 20.1271L11 18.5072L11.4856 18.9626C11.7477 19.2118 12.5469 19.9767 13.2559 20.6642C14.0895 21.472 14.6137 21.9447 14.7383 22.0091C15.0262 22.1509 15.6621 22.1466 15.9543 22.0005C16.2766 21.8415 16.5645 21.5536 16.7192 21.24C16.891 20.8919 16.9082 20.5009 16.7664 20.1743C16.659 19.9337 16.7063 19.9853 14.1453 17.5318C13.0754 16.5048 12.2074 15.6626 12.2117 15.654C12.2203 15.6497 12.3879 15.624 12.5899 15.5939C13.4149 15.4865 14.3817 15.263 15.009 15.031C15.5461 14.8333 16.0145 14.5927 16.5731 14.2232C17.2262 13.7892 17.6215 13.4283 17.7719 13.1189C18.0856 12.4786 17.6602 11.5118 16.9598 11.2669C16.6547 11.1638 16.2035 11.1724 15.8899 11.297C15.7524 11.3486 15.4602 11.5076 15.2453 11.6493C12.7102 13.3208 9.29845 13.3165 6.75041 11.6451C6.53556 11.5033 6.24767 11.3486 6.11447 11.297C5.84377 11.1982 5.42267 11.1509 5.22072 11.2068Z" fill="white"/>
</g>
<defs>
<clipPath id="clip0_152_7898">
<rect width="22" height="22" fill="white" transform="translate(0 0.125)"/>
</clipPath>
</defs>
</svg>
