<svg width="27" height="27" viewBox="0 0 27 27" fill="none" xmlns="http://www.w3.org/2000/svg">
<g clip-path="url(#clip0_152_7902)">
<path d="M21.8246 14.24C21.4043 13.7091 21.5245 13.473 21.8246 12.9985C21.83 12.9931 25.2999 8.19822 25.6574 6.57214L25.6596 6.57105C25.8373 5.97847 25.6596 5.54297 24.8005 5.54297H21.9578C21.2342 5.54297 20.9005 5.91672 20.7218 6.33489C20.7218 6.33489 19.2744 9.79939 17.2269 12.0451C16.5661 12.6941 16.2606 12.9021 15.8998 12.9021C15.7222 12.9021 15.4459 12.6941 15.4459 12.1015V6.57105C15.4459 5.86039 15.2433 5.54297 14.6443 5.54297H10.1744C9.7205 5.54297 9.45075 5.87447 9.45075 6.18322C9.45075 6.85705 10.4745 7.01197 10.5807 8.9078V13.0212C10.5807 13.9226 10.4171 14.0883 10.0542 14.0883C9.08783 14.0883 6.74242 10.6097 5.3525 6.62847C5.07192 5.85605 4.79783 5.54405 4.06875 5.54405H1.225C0.413583 5.54405 0.25 5.9178 0.25 6.33597C0.25 7.0748 1.21633 10.7484 4.74367 15.6017C7.0945 18.9146 10.4052 20.7096 13.4168 20.7096C15.2271 20.7096 15.4481 20.311 15.4481 19.6252C15.4481 16.4597 15.2845 16.1607 16.1913 16.1607C16.6116 16.1607 17.3353 16.3687 19.0253 17.9666C20.9568 19.8614 21.2743 20.7096 22.3554 20.7096H25.1981C26.0084 20.7096 26.419 20.311 26.1828 19.5245C25.6423 17.8702 21.9893 14.4675 21.8246 14.24Z" fill="white"/>
</g>
<defs>
<clipPath id="clip0_152_7902">
<rect width="26" height="26" fill="white" transform="translate(0.25 0.125)"/>
</clipPath>
</defs>
</svg>
