<svg width="28" height="28" viewBox="0 0 28 28" fill="none" xmlns="http://www.w3.org/2000/svg">
<path d="M13.4466 2.67754C13.4978 2.57424 13.5767 2.48729 13.6747 2.4265C13.7726 2.36571 13.8855 2.3335 14.0008 2.3335C14.1161 2.3335 14.229 2.36571 14.3269 2.4265C14.4249 2.48729 14.5038 2.57424 14.555 2.67754L17.25 8.13637C17.4275 8.49567 17.6896 8.80651 18.0137 9.04223C18.3378 9.27795 18.7143 9.4315 19.1108 9.4897L25.1378 10.3717C25.252 10.3883 25.3593 10.4364 25.4475 10.5108C25.5358 10.5851 25.6015 10.6827 25.6372 10.7924C25.6728 10.9021 25.6771 11.0197 25.6495 11.1317C25.6218 11.2437 25.5634 11.3458 25.4808 11.4264L21.1221 15.6707C20.8347 15.9508 20.6196 16.2966 20.4954 16.6783C20.3713 17.0599 20.3417 17.4661 20.4093 17.8617L21.4383 23.8584C21.4585 23.9725 21.4461 24.09 21.4027 24.1975C21.3593 24.305 21.2865 24.3981 21.1928 24.4662C21.099 24.5343 20.9879 24.5747 20.8723 24.5827C20.7567 24.5908 20.6411 24.5662 20.5388 24.5117L15.1511 21.679C14.7961 21.4926 14.4012 21.3952 14.0002 21.3952C13.5993 21.3952 13.2043 21.4926 12.8493 21.679L7.4628 24.5117C7.36052 24.5659 7.24509 24.5902 7.12966 24.582C7.01422 24.5738 6.9034 24.5334 6.80981 24.4653C6.71621 24.3972 6.6436 24.3043 6.60023 24.197C6.55686 24.0897 6.54446 23.9724 6.56446 23.8584L7.5923 17.8629C7.66019 17.4671 7.63078 17.0607 7.50659 16.6788C7.3824 16.2968 7.16717 15.9509 6.87946 15.6707L2.5208 11.4275C2.43749 11.3471 2.37846 11.2448 2.35042 11.1325C2.32238 11.0201 2.32647 10.9021 2.36222 10.7919C2.39797 10.6818 2.46394 10.5839 2.55262 10.5094C2.6413 10.4349 2.74912 10.3868 2.8638 10.3705L8.88963 9.4897C9.2866 9.43195 9.66358 9.27861 9.98815 9.04286C10.3127 8.80711 10.5751 8.49602 10.7528 8.13637L13.4466 2.67754Z" stroke="#D1D5DC" stroke-width="2.40278" stroke-linecap="round" stroke-linejoin="round"/>
</svg>
