<svg width="16" height="17" viewBox="0 0 16 17" fill="none" xmlns="http://www.w3.org/2000/svg">
<path d="M7.68323 2.0296C7.71245 1.97058 7.75758 1.92089 7.81353 1.88615C7.86949 1.85142 7.93404 1.83301 7.9999 1.83301C8.06576 1.83301 8.13031 1.85142 8.18626 1.88615C8.24222 1.92089 8.28735 1.97058 8.31656 2.0296L9.85656 5.14894C9.95802 5.35425 10.1078 5.53188 10.293 5.66657C10.4782 5.80127 10.6933 5.88901 10.9199 5.92227L14.3639 6.42627C14.4292 6.43573 14.4905 6.46325 14.5409 6.50574C14.5913 6.54822 14.6289 6.60397 14.6492 6.66667C14.6696 6.72938 14.6721 6.79654 14.6563 6.86056C14.6405 6.92458 14.6071 6.9829 14.5599 7.02894L12.0692 9.45427C11.905 9.61434 11.7821 9.81192 11.7111 10.03C11.6402 10.2481 11.6233 10.4802 11.6619 10.7063L12.2499 14.1329C12.2614 14.1982 12.2544 14.2653 12.2296 14.3267C12.2048 14.3881 12.1632 14.4413 12.1096 14.4803C12.056 14.5192 11.9926 14.5423 11.9265 14.5469C11.8604 14.5515 11.7944 14.5374 11.7359 14.5063L8.65723 12.8876C8.45438 12.7811 8.22868 12.7254 7.99956 12.7254C7.77044 12.7254 7.54475 12.7811 7.3419 12.8876L4.2639 14.5063C4.20545 14.5372 4.1395 14.5511 4.07353 14.5464C4.00757 14.5418 3.94424 14.5186 3.89076 14.4797C3.83728 14.4409 3.79579 14.3877 3.771 14.3264C3.74622 14.2651 3.73914 14.1981 3.75056 14.1329L4.3379 10.7069C4.3767 10.4808 4.35989 10.2485 4.28892 10.0303C4.21796 9.81207 4.09497 9.61437 3.93056 9.45427L1.4399 7.0296C1.39229 6.98363 1.35856 6.9252 1.34254 6.86099C1.32652 6.79677 1.32886 6.72935 1.34928 6.6664C1.36971 6.60345 1.40741 6.5475 1.45808 6.50493C1.50876 6.46235 1.57037 6.43487 1.6359 6.4256L5.07923 5.92227C5.30607 5.88927 5.52149 5.80164 5.70695 5.66693C5.89242 5.53221 6.04237 5.35445 6.1439 5.14894L7.68323 2.0296Z" fill="#F5C044" stroke="#F5C044" stroke-width="1.33333" stroke-linecap="round" stroke-linejoin="round"/>
</svg>
