<svg width="38" height="38" viewBox="0 0 38 38" fill="none" xmlns="http://www.w3.org/2000/svg">
<path d="M21.9 26.233C22.227 26.3832 22.5954 26.4175 22.9445 26.3303C23.2936 26.2431 23.6026 26.0395 23.8206 25.7532L24.3827 25.017C24.6776 24.6237 25.0601 24.3045 25.4998 24.0846C25.9396 23.8648 26.4244 23.7503 26.916 23.7503H31.666C32.5059 23.7503 33.3113 24.084 33.9052 24.6778C34.4991 25.2717 34.8327 26.0771 34.8327 26.917V31.667C34.8327 32.5068 34.4991 33.3123 33.9052 33.9062C33.3113 34.5 32.5059 34.8337 31.666 34.8337C24.1073 34.8337 16.8583 31.831 11.5135 26.4862C6.16869 21.1414 3.16602 13.8923 3.16602 6.33366C3.16602 5.49381 3.49965 4.68835 4.09351 4.09449C4.68738 3.50062 5.49283 3.16699 6.33268 3.16699H11.0827C11.9225 3.16699 12.728 3.50062 13.3219 4.09449C13.9157 4.68835 14.2493 5.49381 14.2493 6.33366V11.0837C14.2493 11.5753 14.1349 12.0601 13.915 12.4998C13.6952 12.9395 13.376 13.322 12.9827 13.617L12.2417 14.1727C11.951 14.3947 11.7461 14.7104 11.6619 15.0663C11.5776 15.4222 11.6191 15.7963 11.7793 16.125C13.9433 20.5201 17.5022 24.0746 21.9 26.233Z" stroke="white" stroke-width="2.66663" stroke-linecap="round" stroke-linejoin="round"/>
</svg>
