<svg width="38" height="38" viewBox="0 0 38 38" fill="none" xmlns="http://www.w3.org/2000/svg">
<path d="M25.166 17.4167L28.2493 20.5833L34.416 14.25" stroke="white" stroke-width="2.66663" stroke-linecap="round" stroke-linejoin="round"/>
<path d="M25.1673 33.25V30.0833C25.1673 28.4036 24.5176 26.7927 23.3611 25.605C22.2047 24.4173 20.6362 23.75 19.0007 23.75H9.75065C8.11515 23.75 6.54663 24.4173 5.39016 25.605C4.23369 26.7927 3.58398 28.4036 3.58398 30.0833V33.25" stroke="white" stroke-width="2.66663" stroke-linecap="round" stroke-linejoin="round"/>
<path d="M14.3757 17.4167C17.7814 17.4167 20.5423 14.5811 20.5423 11.0833C20.5423 7.58553 17.7814 4.75 14.3757 4.75C10.9699 4.75 8.20898 7.58553 8.20898 11.0833C8.20898 14.5811 10.9699 17.4167 14.3757 17.4167Z" stroke="white" stroke-width="2.66663" stroke-linecap="round" stroke-linejoin="round"/>
</svg>
