<svg width="38" height="38" viewBox="0 0 38 38" fill="none" xmlns="http://www.w3.org/2000/svg">
<path d="M11.2917 25.6292C14.6833 25.6292 17.4583 22.808 17.4583 19.3855C17.4583 17.5971 16.5796 15.9013 14.8221 14.4676C13.0646 13.0338 11.7388 10.9063 11.2917 8.6709C10.8446 10.9063 9.53417 13.0492 7.76125 14.4676C5.98833 15.8859 5.125 17.6126 5.125 19.3855C5.125 22.808 7.9 25.6292 11.2917 25.6292Z" stroke="white" stroke-width="3.08333" stroke-linecap="round" stroke-linejoin="round"/>
<path d="M19.8633 10.6754C20.9236 8.98132 21.6752 7.11269 22.0833 5.15625C22.8541 9.01042 25.1666 12.7104 28.2499 15.1771C31.3333 17.6438 32.8749 20.5729 32.8749 23.6562C32.8837 25.7873 32.2596 27.8729 31.0816 29.6488C29.9037 31.4247 28.225 32.8109 26.2583 33.6316C24.2916 34.4523 22.1255 34.6705 20.0346 34.2587C17.9438 33.8469 16.0222 32.8235 14.5137 31.3183" stroke="white" stroke-width="3.08333" stroke-linecap="round" stroke-linejoin="round"/>
</svg>
