<svg width="38" height="38" viewBox="0 0 38 38" fill="none" xmlns="http://www.w3.org/2000/svg">
<path d="M17.459 3.58301V6.66634" stroke="white" stroke-width="3.0833" stroke-linecap="round" stroke-linejoin="round"/>
<path d="M8.20898 3.58301V6.66634" stroke="white" stroke-width="3.0833" stroke-linecap="round" stroke-linejoin="round"/>
<path d="M8.20898 5.125H6.66732C5.84957 5.125 5.06531 5.44985 4.48707 6.02809C3.90883 6.60632 3.58398 7.39058 3.58398 8.20833V14.375C3.58398 16.8283 4.55854 19.181 6.29325 20.9157C8.02796 22.6504 10.3807 23.625 12.834 23.625C15.2872 23.625 17.64 22.6504 19.3747 20.9157C21.1094 19.181 22.084 16.8283 22.084 14.375V8.20833C22.084 7.39058 21.7591 6.60632 21.1809 6.02809C20.6027 5.44985 19.8184 5.125 19.0007 5.125H17.459" stroke="white" stroke-width="3.0833" stroke-linecap="round" stroke-linejoin="round"/>
<path d="M12.834 23.625C12.834 26.0783 13.8085 28.431 15.5432 30.1657C17.278 31.9005 19.6307 32.875 22.084 32.875C24.5372 32.875 26.89 31.9005 28.6247 30.1657C30.3594 28.431 31.334 26.0783 31.334 23.625V19" stroke="white" stroke-width="3.0833" stroke-linecap="round" stroke-linejoin="round"/>
<path d="M31.3333 18.9997C33.0362 18.9997 34.4167 17.6192 34.4167 15.9163C34.4167 14.2135 33.0362 12.833 31.3333 12.833C29.6305 12.833 28.25 14.2135 28.25 15.9163C28.25 17.6192 29.6305 18.9997 31.3333 18.9997Z" stroke="white" stroke-width="3.0833" stroke-linecap="round" stroke-linejoin="round"/>
</svg>
