<svg width="28" height="29" viewBox="0 0 28 29" fill="none" xmlns="http://www.w3.org/2000/svg">
<path d="M12.834 2.4165V4.83317" stroke="#558CFC" stroke-width="2" stroke-linecap="round" stroke-linejoin="round"/>
<path d="M5.83398 2.4165V4.83317" stroke="#558CFC" stroke-width="2" stroke-linecap="round" stroke-linejoin="round"/>
<path d="M5.83398 3.625H4.66732C4.04848 3.625 3.45499 3.87961 3.0174 4.33283C2.57982 4.78604 2.33398 5.40073 2.33398 6.04167V10.875C2.33398 12.7978 3.07148 14.6419 4.38424 16.0015C5.69699 17.3612 7.47747 18.125 9.33398 18.125C11.1905 18.125 12.971 17.3612 14.2837 16.0015C15.5965 14.6419 16.334 12.7978 16.334 10.875V6.04167C16.334 5.40073 16.0882 4.78604 15.6506 4.33283C15.213 3.87961 14.6195 3.625 14.0007 3.625H12.834" stroke="#558CFC" stroke-width="2" stroke-linecap="round" stroke-linejoin="round"/>
<path d="M9.33398 18.125C9.33398 20.0478 10.0715 21.8919 11.3842 23.2515C12.697 24.6112 14.4775 25.375 16.334 25.375C18.1905 25.375 19.971 24.6112 21.2837 23.2515C22.5965 21.8919 23.334 20.0478 23.334 18.125V14.5" stroke="#558CFC" stroke-width="2" stroke-linecap="round" stroke-linejoin="round"/>
<path d="M23.3333 14.4998C24.622 14.4998 25.6667 13.4179 25.6667 12.0832C25.6667 10.7485 24.622 9.6665 23.3333 9.6665C22.0447 9.6665 21 10.7485 21 12.0832C21 13.4179 22.0447 14.4998 23.3333 14.4998Z" stroke="#558CFC" stroke-width="2" stroke-linecap="round" stroke-linejoin="round"/>
</svg>
