<svg width="41" height="40" viewBox="0 0 41 40" fill="none" xmlns="http://www.w3.org/2000/svg">
<path d="M10.332 36.6668V6.66683C10.332 5.78277 10.6832 4.93493 11.3083 4.30981C11.9335 3.68469 12.7813 3.3335 13.6654 3.3335H26.9987C27.8828 3.3335 28.7306 3.68469 29.3557 4.30981C29.9808 4.93493 30.332 5.78277 30.332 6.66683V36.6668H10.332Z" stroke="white" stroke-width="3.33333" stroke-linecap="round" stroke-linejoin="round"/>
<path d="M10.3307 20H6.9974C6.11334 20 5.26549 20.3512 4.64037 20.9763C4.01525 21.6014 3.66406 22.4493 3.66406 23.3333V33.3333C3.66406 34.2174 4.01525 35.0652 4.64037 35.6904C5.26549 36.3155 6.11334 36.6667 6.9974 36.6667H10.3307" stroke="white" stroke-width="3.33333" stroke-linecap="round" stroke-linejoin="round"/>
<path d="M30.332 15H33.6654C34.5494 15 35.3973 15.3512 36.0224 15.9763C36.6475 16.6014 36.9987 17.4493 36.9987 18.3333V33.3333C36.9987 34.2174 36.6475 35.0652 36.0224 35.6904C35.3973 36.3155 34.5494 36.6667 33.6654 36.6667H30.332" stroke="white" stroke-width="3.33333" stroke-linecap="round" stroke-linejoin="round"/>
<path d="M17 10H23.6667" stroke="white" stroke-width="3.33333" stroke-linecap="round" stroke-linejoin="round"/>
<path d="M17 16.667H23.6667" stroke="white" stroke-width="3.33333" stroke-linecap="round" stroke-linejoin="round"/>
<path d="M17 23.333H23.6667" stroke="white" stroke-width="3.33333" stroke-linecap="round" stroke-linejoin="round"/>
<path d="M17 30H23.6667" stroke="white" stroke-width="3.33333" stroke-linecap="round" stroke-linejoin="round"/>
</svg>
