<svg width="42" height="43" viewBox="0 0 42 43" fill="none" xmlns="http://www.w3.org/2000/svg">
<path d="M35 23.2498C35 31.9998 28.875 36.3748 21.595 38.9123C21.2138 39.0415 20.7997 39.0353 20.4225 38.8948C13.125 36.3748 7 31.9998 7 23.2498V10.9998C7 10.5357 7.18437 10.0906 7.51256 9.76237C7.84075 9.43418 8.28587 9.24981 8.75 9.24981C12.25 9.24981 16.625 7.14981 19.67 4.48981C20.0407 4.17306 20.5124 3.99902 21 3.99902C21.4876 3.99902 21.9593 4.17306 22.33 4.48981C25.3925 7.16731 29.75 9.24981 33.25 9.24981C33.7141 9.24981 34.1592 9.43418 34.4874 9.76237C34.8156 10.0906 35 10.5357 35 10.9998V23.2498Z" stroke="white" stroke-width="3.5" stroke-linecap="round" stroke-linejoin="round"/>
<path d="M15.75 21.5L19.25 25L26.25 18" stroke="white" stroke-width="3.5" stroke-linecap="round" stroke-linejoin="round"/>
</svg>
