<svg width="41" height="40" viewBox="0 0 41 40" fill="none" xmlns="http://www.w3.org/2000/svg">
<path d="M36.8821 29.9997L23.5487 6.66639C23.258 6.1534 22.8364 5.7267 22.3269 5.42984C21.8175 5.13297 21.2384 4.97656 20.6487 4.97656C20.0591 4.97656 19.48 5.13297 18.9705 5.42984C18.4611 5.7267 18.0395 6.1534 17.7487 6.66639L4.41541 29.9997C4.12155 30.5087 3.96746 31.0862 3.96876 31.6739C3.97006 32.2616 4.12671 32.8385 4.42282 33.3461C4.71893 33.8537 5.14399 34.274 5.6549 34.5644C6.16581 34.8548 6.74442 35.005 7.33208 34.9997H33.9987C34.5836 34.9991 35.158 34.8447 35.6642 34.5519C36.1705 34.2591 36.5908 33.8382 36.8829 33.3316C37.1751 32.8249 37.3288 32.2504 37.3287 31.6655C37.3285 31.0807 37.1745 30.5062 36.8821 29.9997Z" stroke="white" stroke-width="3.33333" stroke-linecap="round" stroke-linejoin="round"/>
<path d="M20.666 15V21.6667" stroke="white" stroke-width="3.33333" stroke-linecap="round" stroke-linejoin="round"/>
<path d="M20.666 28.3335H20.6827" stroke="white" stroke-width="3.33333" stroke-linecap="round" stroke-linejoin="round"/>
</svg>
